<svg xmlns="http://www.w3.org/2000/svg" width="456.132" height="73.027" viewBox="0 0 456.132 73.027">
    <defs>
        <style>
            .prefix__cls-1{fill:#a50c22}
        </style>
    </defs>
    <g id="prefix__Group_8245" data-name="Group 8245" transform="translate(-27 -1382)">
        <path id="prefix__Path_16999" d="M240.8 365.481a1.441 1.441 0 0 1-.157.052c-.708.086-.708.086-1.009-.557-.175-.372-.175-.371-.6-.337-.345.027-.691.057-1.035.07a.378.378 0 0 0-.419.341 7.168 7.168 0 0 1-.205.7l-.858.066c.042-.159.068-.272.1-.382q.582-1.883 1.167-3.764c.094-.309.1-.317.416-.326.705-.02.522-.154.845.5.522 1.06 1.029 2.129 1.543 3.193.066.139.129.278.206.444m-2.356-3.074l-.1.009c-.146.514-.294 1.027-.46 1.606l1.253-.084c-.247-.555-.457-1.05-.7-1.531" class="prefix__cls-1" data-name="Path 16999" transform="translate(-178.943 1020.79)"/>
        <path id="prefix__Path_17000" d="M242.929 364.132a1.614 1.614 0 1 1 1.64 1.587 1.518 1.518 0 0 1-1.64-1.587m2.43-.092l-.034-.006a1.913 1.913 0 0 0 0-.214.772.772 0 0 0-1.515-.158 1.39 1.39 0 0 0-.026.844.763.763 0 0 0 .695.573.742.742 0 0 0 .754-.487 3.75 3.75 0 0 0 .127-.552" class="prefix__cls-1" data-name="Path 17000" transform="translate(-178.943 1020.79)"/>
        <path id="prefix__Path_17001" d="M247.5 366.1c-.258-.059-.486-.109-.754-.169.236-1.023.466-2.013.7-3.038l.682.138-.026.415c.123-.057.22-.108.322-.149a1.254 1.254 0 0 1 1.257.125.745.745 0 0 1 .349.666 2.758 2.758 0 0 1-.054.5c-.125.582-.262 1.162-.4 1.743-.016.068-.047.132-.083.237l-.742-.173c.11-.485.216-.936.315-1.387a6.021 6.021 0 0 0 .121-.632c.036-.353-.073-.533-.343-.624a.64.64 0 0 0-.755.249 1.324 1.324 0 0 0-.163.394c-.124.485-.236.973-.354 1.46-.016.067-.042.134-.078.248" class="prefix__cls-1" data-name="Path 17001" transform="translate(-178.943 1020.79)"/>
        <path id="prefix__Path_17002" d="M241.375 361.21h.759c.053.716 0 1.426 0 2.135s-.021 1.427-.032 2.167h-.788c-.016-1.431.071-2.843.062-4.3" class="prefix__cls-1" data-name="Path 17002" transform="translate(-178.943 1020.79)"/>
        <path id="prefix__Path_17004" d="M212.375 406.3l-.247-.853a.941.941 0 0 1 .143-.1 1.547 1.547 0 0 0 .992-1.756 3.448 3.448 0 0 0-.349-1.271 1.334 1.334 0 0 0-.712-.674.949.949 0 0 0-1.315.666 9.124 9.124 0 0 0-.144 1.314c-.037.524-.041 1.05-.08 1.574a3.427 3.427 0 0 1-.133.664 2.063 2.063 0 0 1-3.151 1.132 2.679 2.679 0 0 1-1.045-1.287 4.486 4.486 0 0 1-.3-2.665 2.488 2.488 0 0 1 1.779-1.929 1.035 1.035 0 0 1 .172-.021c.088.286.174.565.264.852a1.563 1.563 0 0 1-.176.105 1.783 1.783 0 0 0-1.168 1.581 3.047 3.047 0 0 0 .617 2.288 1.171 1.171 0 0 0 1.034.47.99.99 0 0 0 .922-.633 3.286 3.286 0 0 0 .2-.865c.048-.523.041-1.051.082-1.575a7.1 7.1 0 0 1 .164-1.238 1.789 1.789 0 0 1 1.7-1.449 1.982 1.982 0 0 1 1.862.929 3.886 3.886 0 0 1 .615 1.59 3.771 3.771 0 0 1 0 1.389 2.178 2.178 0 0 1-1.722 1.763" class="prefix__cls-1" data-name="Path 17004" transform="translate(-178.943 1020.79)"/>
        <path id="prefix__Path_17005" d="M215.119 412.505c-.2.165-.366.307-.533.447l.012.074a2.1 2.1 0 0 1 1.72.8 1.632 1.632 0 0 1 .235 1.885c.155.019.277.038.4.046a2.011 2.011 0 0 1 1.661 1.037 1.5 1.5 0 0 1-.183 1.912 2.947 2.947 0 0 1-.364.343q-1.494 1.175-2.993 2.341c-.047.036-.1.066-.187.127l-.558-.7c.11-.093.2-.173.29-.245.809-.634 1.62-1.264 2.427-1.9a5.645 5.645 0 0 0 .592-.52.867.867 0 0 0 .158-1.086 1.339 1.339 0 0 0-1.756-.657 3.205 3.205 0 0 0-.611.367c-.779.6-1.547 1.2-2.32 1.8-.1.079-.206.153-.33.246l-.555-.713c.112-.1.2-.176.289-.247.837-.657 1.678-1.306 2.51-1.968a3.707 3.707 0 0 0 .589-.572.848.848 0 0 0 .023-1.064 1.336 1.336 0 0 0-1.72-.528 4.842 4.842 0 0 0-.878.547c-.687.517-1.36 1.055-2.038 1.584-.1.08-.207.154-.333.248-.191-.242-.367-.463-.573-.721l4.513-3.529.514.636" class="prefix__cls-1" data-name="Path 17005" transform="translate(-178.943 1020.79)"/>
        <path id="prefix__Path_17007" d="M248.88 373.157l.08.761c-.284.028-.531.05-.776.08a1.491 1.491 0 0 0-.312.073.372.372 0 0 0-.3.43.39.39 0 0 0 .348.395 3.619 3.619 0 0 0 .742-.025 2.577 2.577 0 0 0 .413-.116l-.034.395a9.846 9.846 0 0 0 .8-2.173l-2.69-.752.234-.837c.107.016.187.019.263.039.563.16 1.125.323 1.687.483l1.385.393a4.481 4.481 0 0 0-.321-.41 5.512 5.512 0 0 0-1.825-1.3.448.448 0 0 1-.33-.478c0-.236-.035-.471-.06-.785a7.8 7.8 0 0 1 1.045.5 7.693 7.693 0 0 1 .856.774 1.354 1.354 0 0 0-.024-.223c-.1-.3-.208-.61-.321-.912a.724.724 0 0 0-.416-.508.266.266 0 0 1-.131-.187c-.038-.307-.056-.615-.088-.995a8 8 0 0 1 1 .475.984.984 0 0 1 .321.5c.173.534.332 1.073.459 1.618.138.592.25 1.192.34 1.794.043.282.126.476.428.523a1.012 1.012 0 0 1 .2.1c-.093.268-.186.53-.285.817l-.752-.239c-.316.749-.56 1.518-.843 2.273s-.547 1.5-.846 2.318c-.237-.328-.44-.588-.615-.868a.428.428 0 0 1 .009-.3c.094-.3.205-.605.327-.957h-.448a1.413 1.413 0 0 1-1.465-1.364 1.039 1.039 0 0 1 .474-.981 2.165 2.165 0 0 1 1.458-.321" class="prefix__cls-1" data-name="Path 17007" transform="translate(-178.943 1020.79)"/>
        <path id="prefix__Path_17008" d="M238.876 371.644a2.884 2.884 0 0 1-.061-.3c-.015-.177-.018-.355-.028-.563.391-.034.757-.066 1.122-.1.3-.023.6-.048.894-.065a.669.669 0 0 1 .541.1c.057.05.185.025.278.025h2.053a1.934 1.934 0 0 1 .03.883l-.748.035c-.01.144-.024.27-.024.4 0 1.338 0 2.678-.006 4.016a.536.536 0 0 0 .249.5 1.267 1.267 0 0 1 .4 1.453 1.136 1.136 0 0 1-1.138.814 1.824 1.824 0 0 1-1.237-.394 3.94 3.94 0 0 1-.52-.489 11.658 11.658 0 0 1-1.081-1.534.513.513 0 0 1 .66.245 4.3 4.3 0 0 0 .98 1.135 1.377 1.377 0 0 0 1.331.325.6.6 0 0 0 .47-.564.463.463 0 0 0-.656-.493 1.765 1.765 0 0 0-.414.275 2.245 2.245 0 0 0-.237.258l-.46-.667a1.158 1.158 0 0 1 1.169-.61c-.029-.178-.164-.225-.265-.283a.442.442 0 0 1-.227-.446c.011-.573 0-1.147 0-1.72 0-.128-.01-.257-.019-.431-.562.046-1.1.074-1.623.139a.464.464 0 0 0-.377.564 1.935 1.935 0 0 0 .167.507 4.175 4.175 0 0 0 .869 1.176c.077.074.163.138.281.238l-.35.26a1.352 1.352 0 0 1-.2-.157c-.341-.4-.7-.787-1.009-1.209a2.36 2.36 0 0 1-.477-1.474.919.919 0 0 1 .26-.685.706.706 0 0 1 .363-.2c.64-.069 1.282-.11 1.961-.164l.082.58a3.613 3.613 0 0 0 .015-1.359l-.341-.02c-.07-.005-.164.016-.21-.021-.214-.174-.452-.1-.685-.086-.5.032-1 .072-1.5.106-.093.007-.185 0-.288 0" class="prefix__cls-1" data-name="Path 17008" transform="translate(-178.943 1020.79)"/>
        <path id="prefix__Path_17017" d="M227.089 374.99l1.333-.742c.437-.243.873-.488 1.336-.745a1.03 1.03 0 0 0-.182-.155c-.371-.162-.739-.334-1.121-.469a1.281 1.281 0 0 0-1.139.1.466.466 0 0 1-.641-.068 6.948 6.948 0 0 0-.58-.444 2.232 2.232 0 0 1 1.807-.414 9.845 9.845 0 0 1 2.149.968.414.414 0 0 0 .583-.011l.444.782-.793.472.837 1.536c-.25.137-.477.264-.7.391-.155.087-.314.17-.467.263a.665.665 0 0 0-.246.977.927.927 0 0 0 1.381.169 1 1 0 0 0-.071-.107.56.56 0 0 1-.108-.715.7.7 0 0 1 .712-.378.459.459 0 0 1 .253.115c.268.309.536.626.385 1.087a.532.532 0 0 0 0 .129 2.148 2.148 0 0 1 .87.575c-.194.111-.374.214-.533.307-.241-.14-.454-.265-.669-.386a.326.326 0 0 0-.337.005 1.944 1.944 0 0 1-2.571-.748 2.266 2.266 0 0 1-.273-.731.776.776 0 0 1 .47-.91c.208-.118.415-.235.622-.355.02-.011.033-.034.084-.092l-.391-.722-2 1.1c-.149-.265-.285-.51-.436-.782" class="prefix__cls-1" data-name="Path 17017" transform="translate(-178.943 1020.79)"/>
        <path id="prefix__Path_17018" d="M210.494 413.134a2.2 2.2 0 0 1-1.434-.549 2.878 2.878 0 0 1-1.04-1.941 2.345 2.345 0 0 1 .9-2.186 4.28 4.28 0 0 1 2.278-.962 2.284 2.284 0 0 1 1.505.355 2.883 2.883 0 0 1 1.261 2.815 2.415 2.415 0 0 1-.627 1.265 4.368 4.368 0 0 1-2.843 1.2m.934-4.707a3.4 3.4 0 0 0-2.153 1 1.628 1.628 0 0 0 1.21 2.761 3.178 3.178 0 0 0 2.238-.987 1.534 1.534 0 0 0 .322-1.787 1.614 1.614 0 0 0-1.617-.984" class="prefix__cls-1" data-name="Path 17018" transform="translate(-178.943 1020.79)"/>
        <path id="prefix__Path_17023" d="M233.033 372.13l.235.459.045-.016-.107-.5a12.176 12.176 0 0 1 2.365-.667l.218.789c-.262.086-.484.162-.75.252l1.325 4.651a4.246 4.246 0 0 1-1.031-.3c-.064-.023-.1-.149-.134-.235-.086-.259-.159-.521-.247-.818-.121.089-.21.16-.3.226a1.443 1.443 0 0 1-2.167-.852 1.323 1.323 0 0 1 .955-1.484.274.274 0 0 1 .2.044c.178.137.346.285.534.444-.2.131-.37.234-.527.357a1.194 1.194 0 0 0-.477.61.424.424 0 0 0 .1.463c.135.123.289.075.436.009a1.546 1.546 0 0 0 .668-.628c.073-.118.152-.231.257-.391l-.534-1.849c-.909.327-1.748.719-2.661 1.057-.111-.265-.216-.522-.342-.826l1.954-.788" class="prefix__cls-1" data-name="Path 17023" transform="translate(-178.943 1020.79)"/>
        <path id="prefix__Path_17026" d="M210.655 384.544c.138.315.242.594.382.854a.585.585 0 0 0 .277.2c.3.136.614.257.965.4l-.308.775-4.028-1.63c.108-.266.2-.494.314-.768.586.231 1.153.455 1.719.68l.06-.061c-.051-.115-.1-.229-.152-.343-.277-.583-.55-1.166-.835-1.745a.505.505 0 0 1-.016-.476c.109-.235.2-.479.325-.775.086.178.149.3.206.428.205.457.407.916.612 1.373.14.309.15.313.491.246.773-.151 1.546-.306 2.318-.457.125-.023.251-.036.434-.062-.132.331-.231.611-.36.876a.386.386 0 0 1-.263.139c-.624.1-1.25.191-1.875.284-.07.01-.137.031-.266.061" class="prefix__cls-1" data-name="Path 17026" transform="translate(-178.943 1020.79)"/>
        <path id="prefix__Path_17027" d="M228.675 368.516c.25-.067.5-.137.749-.195a.228.228 0 0 1 .161.047.5.5 0 0 0 .511.048c.511-.17.632-.42.448-.93-.043-.122-.1-.239-.164-.406-.068.1-.115.161-.151.226a1.139 1.139 0 0 1-1.743.372 1.94 1.94 0 0 1-.746-1.872 1.183 1.183 0 0 1 1.6-.959c.065.022.131.041.231.075l-.066-.384c.2-.074.4-.154.627-.238a1.462 1.462 0 0 1 .108.191c.319.822.645 1.644.946 2.474a4.185 4.185 0 0 1 .193.867.769.769 0 0 1-.3.7 2.486 2.486 0 0 1-1.642.609.759.759 0 0 1-.768-.621m-.168-2.521a1.646 1.646 0 0 0 .336.916.661.661 0 0 0 .75.271.707.707 0 0 0 .494-.708 1.465 1.465 0 0 0-.392-.971.656.656 0 0 0-.781-.168.663.663 0 0 0-.407.66" class="prefix__cls-1" data-name="Path 17027" transform="translate(-178.943 1020.79)"/>
        <path id="prefix__Path_17028" d="M215.247 374.544l.559-.533 1.792.94.055-.052c-.307-.6-.7-1.145-1.032-1.757l.526-.55 1.822 1.028a4.049 4.049 0 0 0-.481-.961c-.161-.3-.336-.6-.515-.916.169-.178.322-.34.477-.5a19.114 19.114 0 0 1 1.591 2.867l-.553.506c-.549-.3-1.125-.619-1.7-.936l-.061.064c.31.57.675 1.11 1.009 1.7-.171.184-.34.363-.532.566-.97-.483-1.928-.958-2.953-1.466" class="prefix__cls-1" data-name="Path 17028" transform="translate(-178.943 1020.79)"/>
        <path id="prefix__Path_17029" d="M225.728 364.833l2.1 3.79-.6.354c-.086-.109-.158-.2-.247-.309a1.542 1.542 0 0 0-.09.167 1.2 1.2 0 0 1-1.995.528 2.258 2.258 0 0 1-.779-1.415 1.223 1.223 0 0 1 1.422-1.394c.057.007.114 0 .231 0l-.727-1.34.688-.382M225.67 367a.7.7 0 0 0-.767.731 1.6 1.6 0 0 0 .517 1.029.676.676 0 0 0 .819.131.693.693 0 0 0 .325-.765 1.652 1.652 0 0 0-.494-.892 1.806 1.806 0 0 0-.4-.234" class="prefix__cls-1" data-name="Path 17029" transform="translate(-178.943 1020.79)"/>
        <path id="prefix__Path_17030" d="M260.677 371.654l-.309.279-.549-.429c.879-1.149 1.764-2.266 2.661-3.415.118.084.224.154.324.232s.179.151.293.247c-.3.4-.591.782-.914 1.207.14.016.217.028.295.033a1.219 1.219 0 0 1 1.133 1.527 2.146 2.146 0 0 1-1.13 1.411 1.184 1.184 0 0 1-1.762-.889c-.005-.046-.019-.091-.042-.2m.439-.184a.64.64 0 0 0 1 .576 1.636 1.636 0 0 0 .736-.974.6.6 0 0 0-.19-.648.637.637 0 0 0-.66-.155 1.5 1.5 0 0 0-.882 1.2" class="prefix__cls-1" data-name="Path 17030" transform="translate(-178.943 1020.79)"/>
        <path id="prefix__Path_17035" d="M215.134 375.751a1.652 1.652 0 0 1 .056 3.3 1.768 1.768 0 0 1-1.7-1.657 1.682 1.682 0 0 1 1.644-1.646m-.157.753a.745.745 0 0 0-.73 1 1.309 1.309 0 0 0 1.1.783.749.749 0 0 0 .708-1.019 1.325 1.325 0 0 0-1.08-.764" class="prefix__cls-1" data-name="Path 17035" transform="translate(-178.943 1020.79)"/>
        <path id="prefix__Path_17036" d="M223.479 370.093l.671-.3a1.163 1.163 0 0 1-.178 1.116 1.721 1.721 0 0 1-.96.649 1.274 1.274 0 0 1-1.177-.264 2.121 2.121 0 0 1-.776-1.252 1.3 1.3 0 0 1 .52-1.357 1.345 1.345 0 0 1 1.478-.191 2.07 2.07 0 0 1 .842.816c-.546.431-1.136.784-1.671 1.2a.7.7 0 0 0 .856.371c.306-.1.414-.307.4-.787m-.5-.7c-.33-.432-.705-.509-1.009-.252a.629.629 0 0 0 .011.952l1-.7" class="prefix__cls-1" data-name="Path 17036" transform="translate(-178.943 1020.79)"/>
        <path id="prefix__Path_17037" d="M232.367 365.485c.14.444.37.649.683.652s.492-.146.65-.607c.221-.02.461-.039.743-.063a1.211 1.211 0 0 1-.533.972 1.808 1.808 0 0 1-1.047.307 1.167 1.167 0 0 1-.921-.407 2.01 2.01 0 0 1-.468-1.831 1.288 1.288 0 0 1 1.092-1 1.31 1.31 0 0 1 1.44.557 1.782 1.782 0 0 1 .336.879l-1.975.545m1.1-.794c-.179-.538-.52-.733-.9-.564a.609.609 0 0 0-.271.882c.38-.1.767-.208 1.173-.318" class="prefix__cls-1" data-name="Path 17037" transform="translate(-178.943 1020.79)"/>
        <path id="prefix__Path_17039" d="M265.577 374.888l-1.421-1.459a.667.667 0 0 0-.293.817c.123.318.33.407.889.371.08.114.17.238.254.366.047.068.083.143.131.229a1.085 1.085 0 0 1-1.162-.038 2.523 2.523 0 0 1-.594-.559 1.223 1.223 0 0 1-.1-1.411 2.14 2.14 0 0 1 1.056-.983 1.354 1.354 0 0 1 1.6.365 1.339 1.339 0 0 1 .209 1.621 2.291 2.291 0 0 1-.562.681m-.228-.9c.384-.374.409-.751.105-1.026a.63.63 0 0 0-.952.141l.847.885" class="prefix__cls-1" data-name="Path 17039" transform="translate(-178.943 1020.79)"/>
        <path id="prefix__Path_17040" d="M253.379 366.363l-1.924-.614a.66.66 0 0 0 .117.855c.276.239.519.219.948-.1l.641.336a1.094 1.094 0 0 1-1.076.525 2.5 2.5 0 0 1-.814-.238 1.218 1.218 0 0 1-.7-1.194 2.174 2.174 0 0 1 .463-1.329 1.358 1.358 0 0 1 1.541-.455 1.314 1.314 0 0 1 .986 1.3 1.959 1.959 0 0 1-.178.915m-.614-.689a.648.648 0 0 0-.112-.8.561.561 0 0 0-.658-.128.549.549 0 0 0-.382.554l1.152.372" class="prefix__cls-1" data-name="Path 17040" transform="translate(-178.943 1020.79)"/>
        <path id="prefix__Path_17041" d="M214.663 380.915c-.385-.221-.744-.429-1.106-.633-.217-.123-.432-.254-.658-.361-.333-.16-.56-.115-.734.12a.645.645 0 0 0 .053.852 2.219 2.219 0 0 0 .429.32c.358.218.721.421 1.082.632.09.054.177.113.286.184l-.382.675c-.9-.522-1.787-1.031-2.7-1.561l.337-.614c.133.051.239.091.379.142-.017-.15-.03-.264-.04-.379a1.237 1.237 0 0 1 .138-.727.92.92 0 0 1 1.351-.445c.655.341 1.288.723 1.966 1.107l-.4.688" class="prefix__cls-1" data-name="Path 17041" transform="translate(-178.943 1020.79)"/>
        <path id="prefix__Path_17046" d="M257.333 364.88l.732.4-1.746 3.16 1.907 1.075c-.108.2-.2.384-.321.6l-2.66-1.473c.7-1.257 1.382-2.493 2.088-3.77" class="prefix__cls-1" data-name="Path 17046" transform="translate(-178.943 1020.79)"/>
        <path id="prefix__Path_17048" d="M218.4 369.757l.612-.5c.933 1.11 1.844 2.2 2.781 3.315l-.6.522-2.8-3.335" class="prefix__cls-1" data-name="Path 17048" transform="translate(-178.943 1020.79)"/>
        <path id="prefix__Path_17049" d="M250.109 375.791c.181-.354.333-.659.494-.963.068-.128.19-.131.313-.1a1.227 1.227 0 0 1 .849.658 1.956 1.956 0 0 1-.674 2.5.569.569 0 0 1-.728-.041.4.4 0 0 1 .1-.707 2.492 2.492 0 0 0 .5-.265 1.1 1.1 0 0 0 .316-.378.446.446 0 0 0-.28-.656 2.891 2.891 0 0 0-.6-.078 1.656 1.656 0 0 0-.3.034" class="prefix__cls-1" data-name="Path 17049" transform="translate(-178.943 1020.79)"/>
        <path id="prefix__Path_17050" d="M265.571 376.977l-.5-.61 2.431-1.968.44.533-.236.3c.293.042.581.018.772.256a.709.709 0 0 1 .194.514l-.6.227c-.047-.09-.081-.165-.12-.235a.485.485 0 0 0-.719-.241 3.977 3.977 0 0 0-.629.408c-.343.256-.673.529-1.035.817" class="prefix__cls-1" data-name="Path 17050" transform="translate(-178.943 1020.79)"/>
        <path id="prefix__Path_17051" d="M216.806 388.638l1.169-3.044.838.319-1.167 3.044-.84-.319" class="prefix__cls-1" data-name="Path 17051" transform="translate(-178.943 1020.79)"/>
        <path id="prefix__Path_17052" d="M260.127 367.906l.671.418-1.653 2.651-.675-.416c.559-.9 1.1-1.761 1.657-2.653" class="prefix__cls-1" data-name="Path 17052" transform="translate(-178.943 1020.79)"/>
        <path id="prefix__Path_17054" d="M253.586 374.756c-.645-.328-1.257-.642-1.891-.964.138-.271.259-.514.4-.8l1.893.96c-.139.278-.265.527-.4.8" class="prefix__cls-1" data-name="Path 17054" transform="translate(-178.943 1020.79)"/>
        <path id="prefix__Path_17055" d="M255.7 375.719l-.008.008c-.087.118-.183.077-.28.016-.535-.333-1.071-.667-1.639-1.023.157-.255.3-.492.47-.763.6.374 1.183.736 1.782 1.111l-.325.651" class="prefix__cls-1" data-name="Path 17055" transform="translate(-178.943 1020.79)"/>
        <g id="prefix__Group_8158" data-name="Group 8158" transform="translate(-178.943 1020.79)">
            <path id="prefix__Path_16982" d="M290.337 405.942l-2.964-8.021-.9-.1v-1.339h4.245v1.339l-.845.13 1.7 5.316.091.37h.039l.085-.351 1.644-5.335-1.014-.13v-1.339h3.965v1.339l-.923.1-2.652 8.021z" class="prefix__cls-1" data-name="Path 16982"/>
            <path id="prefix__Path_16983" d="M305.936 405.942v-1.332l.982-.208v-6.376l-.982-.208v-1.339h4.239v1.339l-.982.208v6.374l.982.208v1.332z" class="prefix__cls-1" data-name="Path 16983"/>
            <path id="prefix__Path_16984" d="M319.906 405.942v-1.332l.994-.241v-6.3l-.994-.247v-1.339h4.433a4.308 4.308 0 0 1 2.268.6 4.162 4.162 0 0 1 1.547 1.644 5.067 5.067 0 0 1 .559 2.421v.149a5.067 5.067 0 0 1-.559 2.421 4.15 4.15 0 0 1-1.547 1.642 4.343 4.343 0 0 1-2.268.591zm3.275-1.729h1.04a1.96 1.96 0 0 0 1.209-.364 2.214 2.214 0 0 0 .739-1.024 4.338 4.338 0 0 0 .25-1.537v-.156a4.317 4.317 0 0 0-.25-1.534 2.226 2.226 0 0 0-.739-1.021 1.966 1.966 0 0 0-1.209-.363h-1.04z" class="prefix__cls-1" data-name="Path 16984"/>
            <path id="prefix__Path_16985" d="M341.109 405.942v-1.332l.982-.208v-1.579l-2.744-4.87-.987-.135v-1.339h4.1v1.339l-.585.1 1.3 2.594.149.331h.059l.155-.312 1.522-2.613-.989-.1v-1.339h4.017v1.339l-1 .135-2.717 4.687v1.76l.988.208v1.332z" class="prefix__cls-1" data-name="Path 16985"/>
            <path id="prefix__Path_16986" d="M355.93 405.942v-1.332l.663-.1 2.821-8.033h2.47l2.827 8.033.663.1v1.332h-3.536v-1.332l.618-.118-.286-1.027h-3.042l-.274 1.027.618.118v1.332zm3.678-4.075h2.074l-.923-2.867-.1-.331h-.039l-.11.364z" class="prefix__cls-1" data-name="Path 16986"/>
            <path id="prefix__Path_16987" d="M377.692 405.942l-2.964-8.021-.9-.1v-1.339h4.244v1.339l-.846.13 1.7 5.316.09.37h.039l.084-.351 1.645-5.335-1.014-.13v-1.339h3.965v1.339l-.923.1-2.652 8.021z" class="prefix__cls-1" data-name="Path 16987"/>
            <path id="prefix__Path_16988" d="M393.293 405.942v-1.332l.981-.208v-6.376l-.981-.208v-1.339h4.237v1.339l-.981.208v6.374l.981.208v1.332z" class="prefix__cls-1" data-name="Path 16988"/>
            <path id="prefix__Path_16989" d="M407.262 405.942v-1.332l.981-.208v-6.376l-.981-.208v-1.339h4.245v1.339l-.982.208v2.391h3.445v-2.391l-.982-.208v-1.339h4.238v1.339l-.981.208v6.374l.981.208v1.332h-4.238v-1.33l.982-.208v-2.237h-3.445v2.235l.982.208v1.332z" class="prefix__cls-1" data-name="Path 16989"/>
            <path id="prefix__Path_16990" d="M425.839 405.942v-1.332l.663-.1 2.821-8.033h2.47l2.827 8.033.663.1v1.332h-3.536v-1.332l.618-.118-.286-1.027h-3.042l-.274 1.027.619.118v1.332zm3.678-4.075h2.075l-.924-2.867-.1-.331h-.039l-.11.364z" class="prefix__cls-1" data-name="Path 16990"/>
            <path id="prefix__Path_16991" d="M444.9 405.942v-1.332l.982-.208v-6.376l-.982-.208v-1.346h4.653a4.889 4.889 0 0 1 1.951.357 2.887 2.887 0 0 1 1.274 1.018 2.71 2.71 0 0 1 .448 1.562 2.833 2.833 0 0 1-.452 1.547 3.32 3.32 0 0 1-1.238 1.148 3.62 3.62 0 0 1-1.794.426l-1.579-.02v1.89l.981.208v1.332zm3.263-5.18h1.417a1.518 1.518 0 0 0 1.02-.309 1.114 1.114 0 0 0 .358-.894 1.318 1.318 0 0 0-.365-.972 1.4 1.4 0 0 0-1.04-.367h-1.39zm2.729 5.18l-1.273-3.692 1.982-.675 1.151 2.814.9.227v1.326z" class="prefix__cls-1" data-name="Path 16991"/>
        </g>
        <path id="prefix__Line_1145" fill="none" stroke="#464749" stroke-miterlimit="10" stroke-width="0.754px" d="M0 0L167.174 0" data-name="Line 1145" transform="translate(107.531 1435.992)"/>
        <path id="prefix__Path_16992" d="M295.812 390.5a17.666 17.666 0 0 1-4.917-.656 14.637 14.637 0 0 1-4.42-2.185v-5.945h3.462l.567 3.85a7.678 7.678 0 0 0 2.316 1.083 10.455 10.455 0 0 0 2.992.41 6.848 6.848 0 0 0 2.652-.453 3.673 3.673 0 0 0 1.643-1.271 3.3 3.3 0 0 0 .569-1.933 3.394 3.394 0 0 0-.5-1.829 4.3 4.3 0 0 0-1.651-1.429 14.677 14.677 0 0 0-3.124-1.163 22.08 22.08 0 0 1-4.836-1.846 8.039 8.039 0 0 1-2.929-2.556 6.648 6.648 0 0 1 .142-7.189 7.633 7.633 0 0 1 3.133-2.52 11.157 11.157 0 0 1 4.632-.941 14.683 14.683 0 0 1 5.086.746 12.151 12.151 0 0 1 3.737 2.041v5.557h-3.391l-.639-3.622a6.756 6.756 0 0 0-1.89-.879 9.239 9.239 0 0 0-2.743-.364 5.973 5.973 0 0 0-2.378.444 3.805 3.805 0 0 0-1.616 1.252 3.186 3.186 0 0 0-.586 1.925 2.867 2.867 0 0 0 .516 1.7 4.466 4.466 0 0 0 1.721 1.322 20.784 20.784 0 0 0 3.266 1.2 15.167 15.167 0 0 1 6.372 3.09 6.486 6.486 0 0 1 2.166 5.023 6.239 6.239 0 0 1-1.161 3.754 7.534 7.534 0 0 1-3.267 2.493 12.6 12.6 0 0 1-4.926.889" class="prefix__cls-1" data-name="Path 16992" transform="translate(-178.943 1020.79)"/>
        <path id="prefix__Path_16993" d="M318.922 390.5a10.858 10.858 0 0 1-4.649-.968 10.277 10.277 0 0 1-3.56-2.724 12.493 12.493 0 0 1-2.28-4.154 16.546 16.546 0 0 1-.8-5.254v-.391a16.482 16.482 0 0 1 .8-5.236 12.582 12.582 0 0 1 2.28-4.162 10.21 10.21 0 0 1 3.56-2.734 10.83 10.83 0 0 1 4.632-.967 11.171 11.171 0 0 1 4.739.967 10.107 10.107 0 0 1 3.569 2.734 12.46 12.46 0 0 1 2.254 4.162 16.832 16.832 0 0 1 .781 5.236v.391a16.9 16.9 0 0 1-.781 5.254 12.373 12.373 0 0 1-2.254 4.154 10.173 10.173 0 0 1-3.569 2.724 11.112 11.112 0 0 1-4.722.968m0-3.551a6.043 6.043 0 0 0 3.862-1.2 7.03 7.03 0 0 0 2.254-3.346 15.428 15.428 0 0 0 .737-5.005v-.427a14.979 14.979 0 0 0-.746-4.951 7.156 7.156 0 0 0-2.263-3.338 6.009 6.009 0 0 0-3.861-1.207 5.808 5.808 0 0 0-3.746 1.207 7.312 7.312 0 0 0-2.272 3.338 14.683 14.683 0 0 0-.762 4.951v.427a14.992 14.992 0 0 0 .762 5 7.2 7.2 0 0 0 2.282 3.354 5.868 5.868 0 0 0 3.753 1.2" class="prefix__cls-1" data-name="Path 16993" transform="translate(-178.943 1020.79)"/>
        <path id="prefix__Path_16994" d="M332.679 390.124v-2.734l2.8-.532v-19.295l-2.8-.532v-2.752h9.213l7.579 18.692h.107l7.349-18.692h9.318v2.752l-2.822.532v19.294l2.822.532v2.734h-10.1v-2.733l2.964-.532v-6.017l.035-11.308-.089-.016-8.006 20.022H347.8l-8.237-19.916-.087.019.231 10.9v6.319l3.07.532v2.734z" class="prefix__cls-1" data-name="Path 16994" transform="translate(-178.943 1020.79)"/>
        <path id="prefix__Path_16995" d="M367.417 390.124v-2.734l1.882-.265 8.555-22.846h4.346l8.45 22.846 1.881.265v2.734h-8.219v-2.734l1.846-.337-1.367-4.065h-9.621l-1.4 4.065 1.863.337v2.734zm8.928-10.562h7.3l-3.354-9.567-.23-.692h-.108l-.248.727z" class="prefix__cls-1" data-name="Path 16995" transform="translate(-178.943 1020.79)"/>
        <path id="prefix__Path_16996" d="M394.647 390.124v-2.734l2.822-.532v-19.295l-2.822-.532v-2.752h10.1v2.752l-2.8.532v19.294l2.8.532v2.734z" class="prefix__cls-1" data-name="Path 16996" transform="translate(-178.943 1020.79)"/>
        <path id="prefix__Path_16997" d="M413.888 390.124v-2.734l2.8-.532v-5.822l-7.775-13.651-2.343-.354v-2.752h9.73v2.752l-2.467.319 4.794 9.053.39.781.07-.035.372-.729 5.184-9.071-2.929-.319v-2.752h9.532v2.752l-2.432.354-7.667 13.3v6.177l2.822.532v2.734z" class="prefix__cls-1" data-name="Path 16997" transform="translate(-178.943 1020.79)"/>
        <path id="prefix__Path_16998" d="M428.532 390.124v-2.734l1.882-.265 8.555-22.846h4.349l8.45 22.846 1.88.265v2.734h-8.218v-2.734l1.846-.337-1.367-4.065h-9.621l-1.4 4.065 1.863.337v2.734zm8.928-10.562h7.3l-3.354-9.567-.23-.692h-.108l-.248.727z" class="prefix__cls-1" data-name="Path 16998" transform="translate(-178.943 1020.79)"/>
        <path id="prefix__Path_17149" fill="#464749" d="M2.555-2.25l-.773-.891 4.124-4.382.018-.023-.756-.076v-.908H8.35v.908l-.8.158zM.387 0v-.9l.932-.176v-6.371l-.932-.176v-.908H3.7v.908l-.9.176v6.369l.9.178V0zm4.968 0v-.9l.756-.076v-.008L3.861-4.09l.926-1.037L7.84-1.049l.814.149V0zm9.668.123a3.389 3.389 0 0 1-1.444-.293 2.3 2.3 0 0 1-1-.894 3.05 3.05 0 0 1-.407-1.509l.012-.035h1.4a1.834 1.834 0 0 0 .381 1.21 1.261 1.261 0 0 0 .955.36 1.3 1.3 0 0 0 .691-.176 1.133 1.133 0 0 0 .439-.5 1.852 1.852 0 0 0 .15-.786v-4.947l-1.143-.17v-.914h3.551v.908l-.937.176V-2.5a3 3 0 0 1-.3 1.389 2.135 2.135 0 0 1-.894.914 2.987 2.987 0 0 1-1.454.32zm10.5 0A5.823 5.823 0 0 1 23.9-.094a4.835 4.835 0 0 1-1.459-.721v-1.962h1.143l.188 1.271a2.547 2.547 0 0 0 .765.357 3.457 3.457 0 0 0 .987.135 2.26 2.26 0 0 0 .876-.149 1.213 1.213 0 0 0 .542-.419 1.09 1.09 0 0 0 .188-.639 1.119 1.119 0 0 0-.164-.6 1.424 1.424 0 0 0-.546-.479 4.831 4.831 0 0 0-1.031-.384 7.308 7.308 0 0 1-1.6-.609 2.653 2.653 0 0 1-.967-.844 2.056 2.056 0 0 1-.325-1.16 2.051 2.051 0 0 1 .372-1.213 2.521 2.521 0 0 1 1.034-.832 3.684 3.684 0 0 1 1.529-.311 4.845 4.845 0 0 1 1.679.246 4.022 4.022 0 0 1 1.233.674v1.834h-1.115l-.211-1.2a2.24 2.24 0 0 0-.624-.29 3.044 3.044 0 0 0-.905-.12 1.969 1.969 0 0 0-.785.146 1.254 1.254 0 0 0-.533.413 1.054 1.054 0 0 0-.193.636.949.949 0 0 0 .17.563 1.481 1.481 0 0 0 .568.437 6.925 6.925 0 0 0 1.078.4 5.011 5.011 0 0 1 2.1 1.02 2.143 2.143 0 0 1 .715 1.658 2.058 2.058 0 0 1-.384 1.239 2.484 2.484 0 0 1-1.078.823 4.16 4.16 0 0 1-1.624.297zm6.861 0a2.9 2.9 0 0 1-1.57-.41 2.686 2.686 0 0 1-1.008-1.14 3.822 3.822 0 0 1-.352-1.679v-.123a3.789 3.789 0 0 1 .352-1.67 2.729 2.729 0 0 1 1.008-1.143 2.849 2.849 0 0 1 1.559-.416 2.887 2.887 0 0 1 1.57.413A2.709 2.709 0 0 1 34.951-4.9a3.8 3.8 0 0 1 .349 1.671v.123a3.822 3.822 0 0 1-.352 1.679 2.692 2.692 0 0 1-1 1.14 2.877 2.877 0 0 1-1.563.41zm0-1.137a1.223 1.223 0 0 0 .816-.266 1.594 1.594 0 0 0 .478-.738 3.416 3.416 0 0 0 .158-1.087v-.123a3.368 3.368 0 0 0-.158-1.078 1.6 1.6 0 0 0-.48-.738 1.235 1.235 0 0 0-.82-.27 1.218 1.218 0 0 0-.809.27 1.584 1.584 0 0 0-.478.738 3.427 3.427 0 0 0-.155 1.078v.123a3.475 3.475 0 0 0 .155 1.087 1.555 1.555 0 0 0 .48.738 1.247 1.247 0 0 0 .814.266zM36.082 0v-.9l.885-.176v-4.18l-.932-.176v-.908h2.285l.07.832a2.182 2.182 0 0 1 .776-.7 2.259 2.259 0 0 1 1.081-.249 1.957 1.957 0 0 1 1.063.278 1.72 1.72 0 0 1 .671.841 2.242 2.242 0 0 1 .771-.82 2.071 2.071 0 0 1 1.122-.3 1.86 1.86 0 0 1 1.5.65 3 3 0 0 1 .548 1.969v2.76l.885.176V0h-3.19v-.9l.832-.176v-2.768a1.784 1.784 0 0 0-.27-1.125.973.973 0 0 0-.791-.322 1.089 1.089 0 0 0-.8.311 1.482 1.482 0 0 0-.407.791v3.111l.8.176V0h-3.073v-.9l.8-.176v-2.768a1.763 1.763 0 0 0-.275-1.11.97.97 0 0 0-.8-.337 1.406 1.406 0 0 0-.729.176 1.275 1.275 0 0 0-.472.5v3.539l.826.176V0zm13.512.123a2.136 2.136 0 0 1-1.506-.5 1.774 1.774 0 0 1-.539-1.371 1.736 1.736 0 0 1 .328-1.049 2.136 2.136 0 0 1 .961-.706 4.112 4.112 0 0 1 1.535-.255h.967v-.533a1.079 1.079 0 0 0-.3-.8 1.193 1.193 0 0 0-.876-.3 1.938 1.938 0 0 0-.58.079 1.527 1.527 0 0 0-.451.226L49-4.23h-1.088L47.9-5.795a4.183 4.183 0 0 1 1.043-.483 4.286 4.286 0 0 1 1.277-.179 2.927 2.927 0 0 1 1.9.565 1.969 1.969 0 0 1 .694 1.62V-1.225q0 .123.015.24l.645.082V0h-1.923q-.059-.205-.108-.4a2.993 2.993 0 0 1-.073-.387 2.621 2.621 0 0 1-.765.653 2.008 2.008 0 0 1-1.011.257zm.334-1.143a1.73 1.73 0 0 0 .832-.208 1.479 1.479 0 0 0 .58-.524v-1.06h-.984a1.436 1.436 0 0 0-1 .308.945.945 0 0 0-.337.718.7.7 0 0 0 .234.568 1.013 1.013 0 0 0 .675.198zM54.158 0v-.9l.879-.176v-4.18l-.932-.176v-.908h2.408v5.262l.873.176V0zm.82-7.775v-1.366h1.535v1.365zm4.67 10.336a2.9 2.9 0 0 1-.419-.035 2.964 2.964 0 0 1-.413-.088l.164-1.108q.105.018.255.029t.237.012a.884.884 0 0 0 .621-.231A1.669 1.669 0 0 0 60.5.5l.193-.51-2.164-5.316-.738-.105v-.909h3.07v.908l-.779.117 1.1 2.953.193.551h.035l1.3-3.51-.779-.111v-.908h2.912v.908l-.686.1L61.705.955a3.794 3.794 0 0 1-.437.812 1.911 1.911 0 0 1-.656.58 2 2 0 0 1-.964.214zM67.359.123a2.136 2.136 0 0 1-1.506-.5 1.774 1.774 0 0 1-.539-1.371 1.736 1.736 0 0 1 .328-1.049A2.136 2.136 0 0 1 66.6-3.5a4.112 4.112 0 0 1 1.535-.255h.967v-.533a1.079 1.079 0 0 0-.3-.8 1.193 1.193 0 0 0-.876-.3 1.938 1.938 0 0 0-.58.079 1.527 1.527 0 0 0-.451.226l-.135.855h-1.082l-.012-1.564a4.183 4.183 0 0 1 1.043-.483 4.286 4.286 0 0 1 1.277-.179 2.927 2.927 0 0 1 1.9.565 1.969 1.969 0 0 1 .694 1.62V-1.222q0 .123.015.24l.645.082V0h-1.924q-.059-.205-.108-.4a2.993 2.993 0 0 1-.073-.387 2.621 2.621 0 0 1-.765.653 2.008 2.008 0 0 1-1.011.257zm.334-1.143a1.73 1.73 0 0 0 .832-.208 1.479 1.479 0 0 0 .58-.524v-1.06h-.984a1.436 1.436 0 0 0-1 .308.945.945 0 0 0-.337.718.7.7 0 0 0 .234.568 1.013 1.013 0 0 0 .675.198zM74.918 0v-.9l.932-.176v-6.371l-.932-.176v-.908h3.334v.908l-.926.176v6.369l.926.176V0zM79 0v-.9l.879-.176v-4.18l-.926-.176v-.908h2.287l.076.92a2.3 2.3 0 0 1 .788-.765 2.1 2.1 0 0 1 1.069-.272 1.952 1.952 0 0 1 1.523.6 2.734 2.734 0 0 1 .545 1.878v2.9l.879.176V0h-3.181v-.9l.826-.176v-2.891a1.464 1.464 0 0 0-.287-1.022 1.127 1.127 0 0 0-.855-.3 1.431 1.431 0 0 0-.747.19 1.468 1.468 0 0 0-.519.53v3.492l.8.176V0zm10.443.123a5.8 5.8 0 0 1-1.269-.132 6.524 6.524 0 0 1-1.18-.391l-.018-1.676h1.061l.223.914a2.886 2.886 0 0 0 .519.173 2.65 2.65 0 0 0 .595.062 1.387 1.387 0 0 0 .894-.223.7.7 0 0 0 .261-.551.682.682 0 0 0-.272-.542 2.592 2.592 0 0 0-1.04-.39 3.728 3.728 0 0 1-1.673-.718 1.558 1.558 0 0 1-.536-1.228 1.676 1.676 0 0 1 .278-.943A1.94 1.94 0 0 1 88.1-6.2a3.121 3.121 0 0 1 1.333-.255 4.978 4.978 0 0 1 1.28.149 3.474 3.474 0 0 1 .952.4l.035 1.611h-1.044l-.182-.838a1.4 1.4 0 0 0-.422-.2A1.964 1.964 0 0 0 89.5-5.4a1.24 1.24 0 0 0-.768.214.649.649 0 0 0-.281.536.651.651 0 0 0 .091.34.8.8 0 0 0 .352.278 3.853 3.853 0 0 0 .765.243 4.2 4.2 0 0 1 1.77.75 1.542 1.542 0 0 1 .533 1.225 1.772 1.772 0 0 1-.621 1.395 2.817 2.817 0 0 1-1.898.542zM95.2.111a1.7 1.7 0 0 1-1.26-.454 1.994 1.994 0 0 1-.451-1.45v-3.492h-.926V-6.34h.926v-1.541h1.471v1.541h1.254v1.055h-1.251v3.492a.862.862 0 0 0 .167.589.582.582 0 0 0 .454.185 2.575 2.575 0 0 0 .366-.029q.2-.029.325-.059l.153 1.037a4.7 4.7 0 0 1-.589.129 4.043 4.043 0 0 1-.639.052zM97.148 0v-.9l.879-.176v-4.18l-.927-.176v-.908h2.4v5.262l.873.176V0zm.82-7.775v-1.366H99.5v1.365zM103.43.111a1.7 1.7 0 0 1-1.26-.454 1.994 1.994 0 0 1-.451-1.45v-3.492h-.926V-6.34h.926v-1.541h1.471v1.541h1.254v1.055h-1.254v3.492a.862.862 0 0 0 .167.589.582.582 0 0 0 .454.185 2.575 2.575 0 0 0 .366-.029q.2-.029.325-.059l.152 1.037a4.7 4.7 0 0 1-.589.129 4.043 4.043 0 0 1-.635.052zm4.641.012a2.011 2.011 0 0 1-1.591-.647 2.984 2.984 0 0 1-.571-2.013v-2.719l-.715-.176v-.908h2.191v3.814a1.91 1.91 0 0 0 .261 1.151.963.963 0 0 0 .806.331 1.637 1.637 0 0 0 .817-.19 1.4 1.4 0 0 0 .536-.542v-3.48l-.8-.176v-.908h2.273v5.262l.75.176V0h-2.057l-.1-.861a2.084 2.084 0 0 1-.759.729 2.121 2.121 0 0 1-1.042.255zm7.049-.012a1.7 1.7 0 0 1-1.26-.454 1.994 1.994 0 0 1-.451-1.45v-3.492h-.926V-6.34h.926v-1.541h1.471v1.541h1.254v1.055h-1.254v3.492a.862.862 0 0 0 .167.589.582.582 0 0 0 .454.185 2.575 2.575 0 0 0 .366-.029q.2-.029.325-.059l.152 1.037a4.7 4.7 0 0 1-.589.129 4.043 4.043 0 0 1-.636.052zm4.746.012a2.964 2.964 0 0 1-1.562-.4 2.734 2.734 0 0 1-1.031-1.11 3.486 3.486 0 0 1-.366-1.623v-.246a3.651 3.651 0 0 1 .36-1.649 2.832 2.832 0 0 1 .993-1.137 2.578 2.578 0 0 1 1.441-.413 2.789 2.789 0 0 1 1.444.346 2.2 2.2 0 0 1 .882.981 3.564 3.564 0 0 1 .3 1.526v.844h-3.891l-.012.029a2.285 2.285 0 0 0 .208.885 1.459 1.459 0 0 0 .527.609 1.5 1.5 0 0 0 .835.223 2.952 2.952 0 0 0 .938-.141 2.882 2.882 0 0 0 .779-.4l.463.926a3.212 3.212 0 0 1-.955.533 3.858 3.858 0 0 1-1.354.217zM118.459-3.8h2.455v-.152a1.947 1.947 0 0 0-.126-.729 1.029 1.029 0 0 0-.393-.489 1.206 1.206 0 0 0-.677-.176 1.026 1.026 0 0 0-.627.2 1.4 1.4 0 0 0-.431.542 2.65 2.65 0 0 0-.22.776zM129.076.123a2.9 2.9 0 0 1-1.57-.41 2.686 2.686 0 0 1-1.008-1.14 3.822 3.822 0 0 1-.352-1.679v-.123A3.789 3.789 0 0 1 126.5-4.9a2.729 2.729 0 0 1 1.008-1.143 2.849 2.849 0 0 1 1.559-.416 2.887 2.887 0 0 1 1.57.413 2.709 2.709 0 0 1 1.008 1.14 3.8 3.8 0 0 1 .352 1.676v.123a3.822 3.822 0 0 1-.352 1.679 2.692 2.692 0 0 1-1 1.14 2.877 2.877 0 0 1-1.569.411zm0-1.137a1.223 1.223 0 0 0 .812-.267 1.594 1.594 0 0 0 .478-.738 3.416 3.416 0 0 0 .158-1.087v-.123a3.368 3.368 0 0 0-.158-1.078 1.6 1.6 0 0 0-.48-.738 1.235 1.235 0 0 0-.82-.27 1.218 1.218 0 0 0-.809.27 1.584 1.584 0 0 0-.478.738 3.427 3.427 0 0 0-.155 1.078v.123a3.475 3.475 0 0 0 .155 1.087 1.555 1.555 0 0 0 .48.738 1.247 1.247 0 0 0 .817.267zM132.855 0v-.9l.885-.176v-4.209h-.967V-6.34h.967v-.744a2.16 2.16 0 0 1 .577-1.611 2.2 2.2 0 0 1 1.614-.568 3.776 3.776 0 0 1 .516.038 4.539 4.539 0 0 1 .5.1l-.147 1.104a2.61 2.61 0 0 0-.3-.05 3.184 3.184 0 0 0-.357-.021.894.894 0 0 0-.7.258 1.088 1.088 0 0 0-.231.75v.744h1.418v1.055h-1.418v4.207l1.107.176V0zm7.406 0v-.9l.932-.176v-6.371l-.932-.176v-.908h6.5v2.2h-1.148l-.1-1.061h-2.843v2.412h2.994v1.143h-2.994v2.713h3l.1-1.084h1.137V0zm7.629 0v-.9l.879-.176v-4.18l-.926-.176v-.908h2.285l.076.92a2.3 2.3 0 0 1 .788-.765 2.1 2.1 0 0 1 1.069-.272 1.952 1.952 0 0 1 1.523.6 2.734 2.734 0 0 1 .545 1.878v2.9l.879.176V0h-3.182v-.9l.826-.176v-2.891a1.464 1.464 0 0 0-.287-1.022 1.127 1.127 0 0 0-.855-.3 1.431 1.431 0 0 0-.747.19 1.468 1.468 0 0 0-.519.53v3.492l.8.176V0zm10.51 2.561a4.867 4.867 0 0 1-1.04-.126 4.153 4.153 0 0 1-1-.349l.3-1.078a4.456 4.456 0 0 0 .826.275 3.762 3.762 0 0 0 .855.105 1.312 1.312 0 0 0 1.063-.4 1.715 1.715 0 0 0 .337-1.134v-.5a1.971 1.971 0 0 1-.7.571 2.094 2.094 0 0 1-.926.2 2.286 2.286 0 0 1-1.333-.387 2.435 2.435 0 0 1-.855-1.084 4.112 4.112 0 0 1-.3-1.617v-.123a4.84 4.84 0 0 1 .3-1.77 2.653 2.653 0 0 1 .85-1.178 2.117 2.117 0 0 1 1.321-.422 2.045 2.045 0 0 1 1.008.237 2.119 2.119 0 0 1 .727.677l.111-.8h1.271v6.2a2.925 2.925 0 0 1-.334 1.433 2.286 2.286 0 0 1-.967.938 3.236 3.236 0 0 1-1.514.332zm.117-3.6a1.389 1.389 0 0 0 .729-.182 1.39 1.39 0 0 0 .5-.527v-2.828a1.478 1.478 0 0 0-.5-.524 1.332 1.332 0 0 0-.721-.19 1.16 1.16 0 0 0-.8.278 1.638 1.638 0 0 0-.463.773 4 4 0 0 0-.149 1.151v.123a2.553 2.553 0 0 0 .337 1.4 1.18 1.18 0 0 0 1.07.522zm2.5-4.184L160.4-6.34h1.582v.908zM162.486 0v-.9l.879-.176v-4.18l-.932-.176v-.908h2.408v5.262l.873.176V0zm.82-7.775v-1.366h1.535v1.365zM166.342 0v-.9l.879-.176v-4.18l-.926-.176v-.908h2.285l.076.92a2.3 2.3 0 0 1 .788-.765 2.1 2.1 0 0 1 1.069-.272 1.952 1.952 0 0 1 1.523.6 2.734 2.734 0 0 1 .545 1.878v2.9l.879.176V0h-3.182v-.9l.826-.176v-2.891a1.464 1.464 0 0 0-.287-1.022 1.127 1.127 0 0 0-.855-.3 1.431 1.431 0 0 0-.747.19 1.468 1.468 0 0 0-.519.53v3.492l.8.176V0zm10.688.123a2.964 2.964 0 0 1-1.562-.4 2.734 2.734 0 0 1-1.031-1.11 3.486 3.486 0 0 1-.366-1.623v-.246a3.651 3.651 0 0 1 .36-1.649 2.832 2.832 0 0 1 .993-1.137 2.578 2.578 0 0 1 1.441-.413 2.789 2.789 0 0 1 1.444.346 2.2 2.2 0 0 1 .882.981 3.564 3.564 0 0 1 .3 1.526v.844H175.6l-.012.029a2.285 2.285 0 0 0 .208.885 1.459 1.459 0 0 0 .527.609 1.5 1.5 0 0 0 .835.223 2.952 2.952 0 0 0 .938-.141 2.882 2.882 0 0 0 .779-.4l.463.926a3.212 3.212 0 0 1-.955.533 3.858 3.858 0 0 1-1.354.217zM175.623-3.8h2.455v-.152a1.947 1.947 0 0 0-.126-.729 1.029 1.029 0 0 0-.393-.489 1.206 1.206 0 0 0-.677-.176 1.026 1.026 0 0 0-.627.2 1.4 1.4 0 0 0-.431.542 2.65 2.65 0 0 0-.22.776zm7.764 3.92a2.964 2.964 0 0 1-1.562-.4 2.734 2.734 0 0 1-1.031-1.11 3.486 3.486 0 0 1-.366-1.623v-.246a3.651 3.651 0 0 1 .36-1.649 2.832 2.832 0 0 1 .993-1.137 2.578 2.578 0 0 1 1.441-.413 2.789 2.789 0 0 1 1.444.346 2.2 2.2 0 0 1 .882.981 3.564 3.564 0 0 1 .3 1.526v.844h-3.891l-.012.029a2.285 2.285 0 0 0 .208.885 1.459 1.459 0 0 0 .527.609 1.5 1.5 0 0 0 .835.223 2.952 2.952 0 0 0 .938-.141 2.882 2.882 0 0 0 .779-.4l.463.926a3.212 3.212 0 0 1-.955.533 3.858 3.858 0 0 1-1.353.22zM181.98-3.8h2.455v-.152a1.947 1.947 0 0 0-.126-.729 1.029 1.029 0 0 0-.393-.489 1.206 1.206 0 0 0-.677-.176 1.026 1.026 0 0 0-.627.2 1.4 1.4 0 0 0-.431.542 2.65 2.65 0 0 0-.22.776zm4.77 3.8v-.9l.879-.176v-4.18l-.926-.176v-.908h2.285l.076.8.012.129a2.1 2.1 0 0 1 .618-.773 1.409 1.409 0 0 1 .858-.27 2.228 2.228 0 0 1 .349.029 2.38 2.38 0 0 1 .3.064L191.033-5l-.826-.047a1.029 1.029 0 0 0-.665.158 1.439 1.439 0 0 0-.437.5v3.3l.879.176V0zm5.05 0v-.9l.879-.176v-4.18l-.932-.176v-.908h2.408v5.262l.873.176V0zm.82-7.775v-1.366h1.535v1.365zM195.656 0v-.9l.879-.176v-4.18l-.926-.176v-.908h2.285l.076.92a2.3 2.3 0 0 1 .788-.765 2.1 2.1 0 0 1 1.069-.272 1.952 1.952 0 0 1 1.523.6 2.734 2.734 0 0 1 .545 1.878v2.9l.879.176V0h-3.182v-.9l.826-.176v-2.891a1.464 1.464 0 0 0-.287-1.022 1.127 1.127 0 0 0-.855-.3 1.431 1.431 0 0 0-.747.19 1.468 1.468 0 0 0-.519.53v3.492l.8.176V0zm10.512 2.561a4.867 4.867 0 0 1-1.04-.126 4.153 4.153 0 0 1-1-.349l.3-1.078a4.456 4.456 0 0 0 .826.275 3.762 3.762 0 0 0 .855.105 1.312 1.312 0 0 0 1.063-.4 1.715 1.715 0 0 0 .337-1.134v-.5a1.971 1.971 0 0 1-.7.571 2.094 2.094 0 0 1-.926.2 2.286 2.286 0 0 1-1.333-.387 2.435 2.435 0 0 1-.855-1.084 4.112 4.112 0 0 1-.3-1.617v-.123a4.84 4.84 0 0 1 .3-1.77 2.653 2.653 0 0 1 .85-1.178 2.117 2.117 0 0 1 1.321-.422 2.045 2.045 0 0 1 1.008.237 2.119 2.119 0 0 1 .727.677l.111-.8h1.271v6.2a2.925 2.925 0 0 1-.334 1.433 2.286 2.286 0 0 1-.967.938 3.236 3.236 0 0 1-1.514.332zm.117-3.6a1.389 1.389 0 0 0 .729-.182 1.39 1.39 0 0 0 .5-.527v-2.828a1.478 1.478 0 0 0-.5-.524 1.332 1.332 0 0 0-.721-.19 1.16 1.16 0 0 0-.8.278 1.638 1.638 0 0 0-.463.773 4 4 0 0 0-.149 1.151v.123a2.553 2.553 0 0 0 .337 1.4 1.18 1.18 0 0 0 1.067.522zm2.5-4.184l-.621-1.113h1.582v.908zM215.35.123a2.136 2.136 0 0 1-1.506-.5 1.774 1.774 0 0 1-.539-1.371 1.736 1.736 0 0 1 .328-1.049 2.136 2.136 0 0 1 .961-.706 4.112 4.112 0 0 1 1.535-.255h.967v-.533a1.079 1.079 0 0 0-.3-.8 1.193 1.193 0 0 0-.876-.3 1.938 1.938 0 0 0-.58.079 1.527 1.527 0 0 0-.451.226l-.135.855h-1.084l-.012-1.564a4.183 4.183 0 0 1 1.043-.483 4.286 4.286 0 0 1 1.277-.179 2.927 2.927 0 0 1 1.9.565 1.969 1.969 0 0 1 .694 1.62V-1.225q0 .123.015.24l.645.082V0h-1.928q-.059-.205-.108-.4a2.993 2.993 0 0 1-.073-.387 2.621 2.621 0 0 1-.765.653 2.008 2.008 0 0 1-1.008.257zm.334-1.143a1.73 1.73 0 0 0 .832-.208 1.479 1.479 0 0 0 .58-.524v-1.06h-.984a1.436 1.436 0 0 0-1 .308.945.945 0 0 0-.337.718.7.7 0 0 0 .234.568 1.013 1.013 0 0 0 .675.198zM219.92 0v-.9l.879-.176v-4.18l-.926-.176v-.908h2.285l.076.92a2.3 2.3 0 0 1 .788-.765 2.1 2.1 0 0 1 1.069-.272 1.952 1.952 0 0 1 1.523.6 2.734 2.734 0 0 1 .545 1.878v2.9l.879.176V0h-3.182v-.9l.826-.176v-2.891a1.464 1.464 0 0 0-.287-1.022 1.127 1.127 0 0 0-.855-.3 1.431 1.431 0 0 0-.747.19 1.468 1.468 0 0 0-.519.53v3.492l.8.176V0zm10.18.123a2.209 2.209 0 0 1-1.312-.387 2.44 2.44 0 0 1-.835-1.081 4.18 4.18 0 0 1-.29-1.62v-.123a4.928 4.928 0 0 1 .29-1.77 2.634 2.634 0 0 1 .838-1.178 2.074 2.074 0 0 1 1.3-.422 2.067 2.067 0 0 1 .952.208 2.034 2.034 0 0 1 .7.595v-2.4l-.932-.176v-.908h2.408v8.063l.879.176V0h-2.156l-.117-.768a2 2 0 0 1-.725.668 2.123 2.123 0 0 1-1 .223zm.416-1.166a1.376 1.376 0 0 0 .727-.185 1.438 1.438 0 0 0 .5-.536v-2.795a1.505 1.505 0 0 0-.5-.536 1.305 1.305 0 0 0-.718-.2 1.13 1.13 0 0 0-.788.278 1.643 1.643 0 0 0-.454.773 4.072 4.072 0 0 0-.146 1.151v.123a2.626 2.626 0 0 0 .325 1.4 1.145 1.145 0 0 0 1.058.527zM237.7 0v-.9l.932-.176v-6.371l-.932-.176v-.908h3.334v.908l-.926.176v6.369l.926.176V0zm4.084 0v-.9l.879-.176v-4.18l-.926-.176v-.908h2.285l.076.92a2.3 2.3 0 0 1 .788-.765 2.1 2.1 0 0 1 1.069-.272 1.952 1.952 0 0 1 1.523.6 2.734 2.734 0 0 1 .545 1.878v2.9l.879.176V0h-3.182v-.9l.826-.176v-2.891a1.464 1.464 0 0 0-.287-1.022 1.127 1.127 0 0 0-.855-.3 1.431 1.431 0 0 0-.747.19 1.468 1.468 0 0 0-.519.53v3.492l.8.176V0zm7.828 0v-.9l.885-.176v-4.209h-.967V-6.34h.967v-.744a2.16 2.16 0 0 1 .577-1.611 2.2 2.2 0 0 1 1.614-.568 3.776 3.776 0 0 1 .516.038 4.539 4.539 0 0 1 .5.1l-.146 1.107a2.61 2.61 0 0 0-.3-.05 3.184 3.184 0 0 0-.357-.021.894.894 0 0 0-.7.258 1.088 1.088 0 0 0-.231.75v.744h1.418v1.055h-1.418v4.207l1.107.176V0zM257 .123a2.9 2.9 0 0 1-1.57-.41 2.686 2.686 0 0 1-1.008-1.14 3.822 3.822 0 0 1-.352-1.679v-.123a3.789 3.789 0 0 1 .352-1.67 2.729 2.729 0 0 1 1.008-1.143 2.849 2.849 0 0 1 1.559-.416 2.887 2.887 0 0 1 1.57.413A2.709 2.709 0 0 1 259.57-4.9a3.8 3.8 0 0 1 .352 1.676v.123a3.822 3.822 0 0 1-.352 1.679 2.692 2.692 0 0 1-1 1.14 2.877 2.877 0 0 1-1.57.405zm0-1.137a1.223 1.223 0 0 0 .812-.267 1.594 1.594 0 0 0 .478-.738 3.416 3.416 0 0 0 .158-1.087v-.123a3.368 3.368 0 0 0-.158-1.078 1.6 1.6 0 0 0-.48-.738 1.235 1.235 0 0 0-.82-.27 1.218 1.218 0 0 0-.809.27 1.584 1.584 0 0 0-.478.738 3.427 3.427 0 0 0-.155 1.078v.123a3.475 3.475 0 0 0 .155 1.087 1.555 1.555 0 0 0 .48.738 1.247 1.247 0 0 0 .817.267zM260.807 0v-.9l.879-.176v-4.18l-.926-.176v-.908h2.285l.076.8.012.129a2.1 2.1 0 0 1 .618-.773 1.409 1.409 0 0 1 .858-.27 2.228 2.228 0 0 1 .349.029 2.38 2.38 0 0 1 .3.064L265.09-5l-.826-.047a1.029 1.029 0 0 0-.665.158 1.439 1.439 0 0 0-.437.5v3.3l.879.176V0zm5.033 0v-.9l.885-.176v-4.18l-.932-.176v-.908h2.285l.07.832a2.182 2.182 0 0 1 .776-.7 2.259 2.259 0 0 1 1.081-.249 1.957 1.957 0 0 1 1.063.278 1.72 1.72 0 0 1 .671.841 2.242 2.242 0 0 1 .771-.82 2.071 2.071 0 0 1 1.122-.3 1.86 1.86 0 0 1 1.5.65 3 3 0 0 1 .548 1.969v2.76l.885.176V0h-3.193v-.9l.832-.176v-2.768a1.784 1.784 0 0 0-.27-1.125.973.973 0 0 0-.791-.322 1.089 1.089 0 0 0-.8.311 1.482 1.482 0 0 0-.407.791v3.111l.8.176V0h-3.076v-.9l.8-.176v-2.768a1.763 1.763 0 0 0-.275-1.11.97.97 0 0 0-.8-.337 1.406 1.406 0 0 0-.729.176 1.275 1.275 0 0 0-.472.5v3.539l.826.176V0zm13.512.123a2.136 2.136 0 0 1-1.506-.5 1.774 1.774 0 0 1-.539-1.371 1.736 1.736 0 0 1 .328-1.049 2.136 2.136 0 0 1 .965-.703 4.112 4.112 0 0 1 1.535-.255h.967v-.533a1.079 1.079 0 0 0-.3-.8 1.193 1.193 0 0 0-.876-.3 1.938 1.938 0 0 0-.58.079 1.527 1.527 0 0 0-.451.226l-.135.855h-1.09l-.012-1.564a4.183 4.183 0 0 1 1.043-.483 4.286 4.286 0 0 1 1.277-.179 2.927 2.927 0 0 1 1.9.565 1.969 1.969 0 0 1 .694 1.62V-1.222q0 .123.015.24l.645.082V0h-1.928q-.059-.205-.108-.4a2.993 2.993 0 0 1-.073-.387 2.621 2.621 0 0 1-.765.653 2.008 2.008 0 0 1-1.006.257zm.334-1.143a1.73 1.73 0 0 0 .832-.208 1.479 1.479 0 0 0 .58-.524v-1.06h-.984a1.436 1.436 0 0 0-1 .308.945.945 0 0 0-.337.718.7.7 0 0 0 .234.568 1.013 1.013 0 0 0 .675.198zm6.539 1.131a1.7 1.7 0 0 1-1.26-.454 1.994 1.994 0 0 1-.451-1.45v-3.492h-.926V-6.34h.926v-1.541h1.471v1.541h1.254v1.055h-1.254v3.492a.862.862 0 0 0 .167.589.582.582 0 0 0 .454.185 2.575 2.575 0 0 0 .366-.029q.2-.029.325-.059l.152 1.037a4.7 4.7 0 0 1-.589.129 4.043 4.043 0 0 1-.635.052zM288.17 0v-.9l.879-.176v-4.18l-.932-.176v-.908h2.408v5.262l.875.178V0zm.82-7.775v-1.366h1.535v1.365zm6.029 7.9a2.9 2.9 0 0 1-1.57-.41 2.686 2.686 0 0 1-1.008-1.14 3.822 3.822 0 0 1-.352-1.679v-.123a3.789 3.789 0 0 1 .352-1.67 2.729 2.729 0 0 1 1.008-1.143 2.849 2.849 0 0 1 1.559-.416 2.887 2.887 0 0 1 1.57.413 2.709 2.709 0 0 1 1.008 1.14 3.8 3.8 0 0 1 .352 1.676v.123a3.822 3.822 0 0 1-.352 1.679 2.692 2.692 0 0 1-1 1.14 2.877 2.877 0 0 1-1.566.408zm0-1.137a1.223 1.223 0 0 0 .812-.267 1.594 1.594 0 0 0 .478-.738 3.416 3.416 0 0 0 .158-1.087v-.123a3.368 3.368 0 0 0-.158-1.078 1.6 1.6 0 0 0-.48-.738 1.235 1.235 0 0 0-.82-.27 1.218 1.218 0 0 0-.809.27 1.584 1.584 0 0 0-.478.738 3.427 3.427 0 0 0-.155 1.078v.123a3.475 3.475 0 0 0 .155 1.087 1.555 1.555 0 0 0 .48.738 1.247 1.247 0 0 0 .818.265zM298.717 0v-.9l.879-.176v-4.18l-.926-.176v-.908h2.285l.076.92a2.3 2.3 0 0 1 .788-.765 2.1 2.1 0 0 1 1.069-.272 1.952 1.952 0 0 1 1.523.6 2.734 2.734 0 0 1 .545 1.878v2.9l.879.176V0h-3.182v-.9l.826-.176v-2.891a1.464 1.464 0 0 0-.287-1.022 1.127 1.127 0 0 0-.855-.3 1.431 1.431 0 0 0-.747.19 1.468 1.468 0 0 0-.519.53v3.492l.8.176V0zm12.762 0v-.9l.932-.176V-7.4h-1.717l-.129 1.09h-1.107v-2.221h7.389v2.221h-1.113L315.6-7.4h-1.717v6.322l.932.176V0zm8.6.123a2.964 2.964 0 0 1-1.562-.4 2.734 2.734 0 0 1-1.031-1.11 3.486 3.486 0 0 1-.366-1.623v-.246a3.651 3.651 0 0 1 .36-1.649 2.832 2.832 0 0 1 .993-1.137 2.578 2.578 0 0 1 1.441-.413 2.789 2.789 0 0 1 1.444.346 2.2 2.2 0 0 1 .882.981 3.564 3.564 0 0 1 .3 1.526v.844h-3.891l-.012.029a2.285 2.285 0 0 0 .208.885 1.459 1.459 0 0 0 .527.609 1.5 1.5 0 0 0 .835.223 2.952 2.952 0 0 0 .938-.141 2.882 2.882 0 0 0 .779-.4l.463.926a3.212 3.212 0 0 1-.955.533 3.858 3.858 0 0 1-1.358.217zM318.668-3.8h2.455v-.152a1.947 1.947 0 0 0-.123-.727 1.029 1.029 0 0 0-.393-.489 1.206 1.206 0 0 0-.677-.176 1.026 1.026 0 0 0-.627.2 1.4 1.4 0 0 0-.431.542 2.65 2.65 0 0 0-.22.776zM326.4.123a2.859 2.859 0 0 1-1.544-.407 2.707 2.707 0 0 1-1.008-1.125 3.692 3.692 0 0 1-.354-1.655v-.206a3.7 3.7 0 0 1 .352-1.641 2.723 2.723 0 0 1 1-1.134 2.828 2.828 0 0 1 1.544-.413 3.554 3.554 0 0 1 1.418.261 3.144 3.144 0 0 1 .99.647l.006 1.693h-1.125l-.217-1.119a1.2 1.2 0 0 0-.416-.272 1.448 1.448 0 0 0-.551-.1 1.319 1.319 0 0 0-.829.264 1.631 1.631 0 0 0-.521.729 3.026 3.026 0 0 0-.179 1.087v.205a3.057 3.057 0 0 0 .182 1.125 1.512 1.512 0 0 0 .507.691 1.245 1.245 0 0 0 .747.234 1.224 1.224 0 0 0 .829-.275 1.319 1.319 0 0 0 .419-.762h1.277l.018.035a2.66 2.66 0 0 1-.366 1.1 2.048 2.048 0 0 1-.832.759 2.942 2.942 0 0 1-1.347.279zM329.66 0v-.9l.879-.176v-6.981l-.932-.176v-.908h2.4v3.621a2.2 2.2 0 0 1 .768-.691 2.14 2.14 0 0 1 1.031-.246 1.961 1.961 0 0 1 1.538.624 2.818 2.818 0 0 1 .56 1.925v2.83l.879.176V0H333.6v-.9l.832-.176V-3.92a1.537 1.537 0 0 0-.293-1.049 1.105 1.105 0 0 0-.861-.322 1.489 1.489 0 0 0-.729.179 1.544 1.544 0 0 0-.542.5v3.533l.832.176V0zm7.74 0v-.9l.879-.176v-4.18l-.926-.176v-.908h2.285l.076.92a2.3 2.3 0 0 1 .788-.765 2.1 2.1 0 0 1 1.069-.272 1.952 1.952 0 0 1 1.523.6 2.734 2.734 0 0 1 .545 1.878v2.9l.879.176V0h-3.182v-.9l.826-.176v-2.891a1.464 1.464 0 0 0-.287-1.022 1.127 1.127 0 0 0-.855-.3 1.431 1.431 0 0 0-.747.19 1.468 1.468 0 0 0-.519.53v3.492l.8.176V0zm10.67.123a2.9 2.9 0 0 1-1.57-.41 2.686 2.686 0 0 1-1.008-1.14 3.822 3.822 0 0 1-.352-1.679v-.123a3.789 3.789 0 0 1 .352-1.67 2.729 2.729 0 0 1 1.008-1.142 2.849 2.849 0 0 1 1.559-.416 2.887 2.887 0 0 1 1.57.413 2.709 2.709 0 0 1 1.008 1.14 3.8 3.8 0 0 1 .352 1.676v.123a3.822 3.822 0 0 1-.352 1.679 2.692 2.692 0 0 1-1 1.14 2.877 2.877 0 0 1-1.567.409zm0-1.137a1.223 1.223 0 0 0 .812-.267 1.594 1.594 0 0 0 .478-.738 3.416 3.416 0 0 0 .158-1.087v-.123a3.368 3.368 0 0 0-.158-1.078 1.6 1.6 0 0 0-.48-.738 1.235 1.235 0 0 0-.82-.27 1.218 1.218 0 0 0-.809.27 1.584 1.584 0 0 0-.478.738 3.427 3.427 0 0 0-.155 1.078v.123a3.475 3.475 0 0 0 .155 1.087 1.555 1.555 0 0 0 .48.738 1.247 1.247 0 0 0 .817.267zM351.609 0v-.9l.885-.176v-6.981l-.937-.176v-.908h2.408v8.063l.885.176V0zm6.744.123a2.9 2.9 0 0 1-1.57-.41 2.686 2.686 0 0 1-1.008-1.14 3.822 3.822 0 0 1-.352-1.679v-.123a3.789 3.789 0 0 1 .352-1.67 2.729 2.729 0 0 1 1.008-1.143 2.849 2.849 0 0 1 1.559-.416 2.887 2.887 0 0 1 1.57.413A2.709 2.709 0 0 1 360.92-4.9a3.8 3.8 0 0 1 .352 1.676v.123a3.822 3.822 0 0 1-.352 1.679 2.692 2.692 0 0 1-1 1.14 2.877 2.877 0 0 1-1.566.405zm0-1.137a1.223 1.223 0 0 0 .812-.267 1.594 1.594 0 0 0 .478-.738 3.416 3.416 0 0 0 .158-1.087v-.123a3.368 3.368 0 0 0-.158-1.078 1.6 1.6 0 0 0-.48-.738 1.235 1.235 0 0 0-.82-.27 1.218 1.218 0 0 0-.809.27 1.584 1.584 0 0 0-.478.738 3.427 3.427 0 0 0-.155 1.078v.123a3.475 3.475 0 0 0 .155 1.087 1.555 1.555 0 0 0 .48.738 1.247 1.247 0 0 0 .818.267zM365 2.561a4.867 4.867 0 0 1-1.04-.126 4.153 4.153 0 0 1-1-.349l.3-1.078a4.456 4.456 0 0 0 .826.275 3.762 3.762 0 0 0 .855.105 1.312 1.312 0 0 0 1.063-.4 1.715 1.715 0 0 0 .337-1.134v-.5a1.971 1.971 0 0 1-.7.571 2.094 2.094 0 0 1-.926.2 2.286 2.286 0 0 1-1.333-.387 2.435 2.435 0 0 1-.855-1.084 4.112 4.112 0 0 1-.3-1.617v-.123a4.84 4.84 0 0 1 .3-1.77 2.653 2.653 0 0 1 .85-1.178 2.117 2.117 0 0 1 1.321-.422 2.045 2.045 0 0 1 1.008.237 2.119 2.119 0 0 1 .727.677l.111-.8h1.271v6.2a2.925 2.925 0 0 1-.334 1.433 2.286 2.286 0 0 1-.967.938 3.236 3.236 0 0 1-1.514.332zm.117-3.6a1.389 1.389 0 0 0 .729-.182 1.39 1.39 0 0 0 .5-.527v-2.828a1.478 1.478 0 0 0-.5-.524 1.332 1.332 0 0 0-.721-.19 1.16 1.16 0 0 0-.8.278 1.638 1.638 0 0 0-.463.773 4 4 0 0 0-.149 1.151v.123a2.553 2.553 0 0 0 .337 1.4 1.18 1.18 0 0 0 1.071.522zm2.5-4.184L367-6.34h1.582v.908zm3.105 7.787a2.9 2.9 0 0 1-.419-.035 2.964 2.964 0 0 1-.413-.088l.164-1.107q.105.018.255.029t.237.012a.884.884 0 0 0 .621-.231 1.669 1.669 0 0 0 .41-.642l.193-.51-2.168-5.314-.738-.105v-.913h3.07v.908l-.779.117 1.1 2.953.193.551h.035l1.3-3.51-.779-.111v-.908h2.912v.908l-.686.1-2.445 6.287a3.794 3.794 0 0 1-.437.812 1.911 1.911 0 0 1-.656.58 2 2 0 0 1-.963.214z" data-name="Path 17149" transform="translate(107.207 1452.467)"/>
        <path id="prefix__Path_17003" d="M267.138 398.73a25.939 25.939 0 0 1-51.7.128 13.048 13.048 0 0 0 12.918 10.8 12.915 12.915 0 0 0 12.168-8.64c-.16-.1-.328-.207-.5-.311a9.271 9.271 0 0 1-3.4-3.518 6.6 6.6 0 0 1-.827-2.978 6.007 6.007 0 0 1 .881-3.351 12.347 12.347 0 0 1 1.142-1.557 15.718 15.718 0 0 0 2.184-3.1 7.521 7.521 0 0 0 .835-3.053 9.484 9.484 0 0 0-.228-2.24c-.1-.5-.176-1.011-.259-1.518a2.334 2.334 0 0 1 0-.318 2.334 2.334 0 0 1 .284.146 16.77 16.77 0 0 1 5.6 6.365 11.831 11.831 0 0 1-.469 11.2 10.853 10.853 0 0 1-2.439 2.655q-.474.384-.94.776c-.1.084-.186.185-.283.274a.428.428 0 0 0-.1.517 13.077 13.077 0 0 0 1.088 2.3 12.759 12.759 0 0 0 8.889 6.145 12.967 12.967 0 0 0 14.2-7.556 14.394 14.394 0 0 0 .957-3.169" class="prefix__cls-1" data-name="Path 17003" transform="translate(-178.943 1020.79)"/>
        <path id="prefix__Path_17006" d="M226.717 375.363l.536.69-.6.517 2.968 3.81a1.733 1.733 0 0 1-.259.073c-.142.015-.288 0-.429.027a.7.7 0 0 1-.749-.338c-.666-.89-1.36-1.758-2.045-2.634-.079-.1-.164-.2-.263-.324a4.412 4.412 0 0 0-1.126.951c1.112 1.152 2.218 2.3 3.383 3.51-.4.069-.736.139-1.073.174-.081.009-.189-.082-.26-.154-.388-.39-.766-.788-1.148-1.182-.083-.084-.169-.162-.291-.277l-1.007 1.113.8.745a.39.39 0 0 1-.389.193c-.43 0-.86-.01-1.29-.018a.464.464 0 0 1-.491-.286.532.532 0 0 1 .129-.591c.461-.5.912-1.011 1.366-1.518.08-.089.154-.18.26-.3l-.711-.734c-.855.734-1.5 1.613-2.292 2.409l-.663-.587 1.726-1.919.267.185.022-.027-.159-.233a25.315 25.315 0 0 1 3.79-3.271" class="prefix__cls-1" data-name="Path 17006" transform="translate(-178.943 1020.79)"/>
        <path id="prefix__Path_17009" d="M252.285 425.925l-.91-2.677c.3-.1.568-.195.868-.3l2.584 7.5-.792.273c-.088-.209-.159-.381-.253-.6-.06.106-.1.169-.133.236a2.057 2.057 0 0 1-2.041 1.163 2.536 2.536 0 0 1-1.939-1.2 4.138 4.138 0 0 1-.7-2.615 2.187 2.187 0 0 1 3.065-1.872c.05.028.109.041.249.1m-2.407 2.1a3.949 3.949 0 0 0 .724 2 1.591 1.591 0 0 0 1.167.689 1.451 1.451 0 0 0 1.56-1.567 3.73 3.73 0 0 0-.824-2.213 1.489 1.489 0 0 0-1.67-.5 1.533 1.533 0 0 0-.957 1.592" class="prefix__cls-1" data-name="Path 17009" transform="translate(-178.943 1020.79)"/>
        <path id="prefix__Path_17010" d="M247.113 424.428l.2 1.046-.854.174c-.045-.065-.09-.126-.163-.229a1.07 1.07 0 0 0-.059.112l-1.146 3.242-1.356 3.853c-.117.333-.119.333-.48.344-.18.006-.358.01-.537.013-.036 0-.071-.008-.155-.017-1.1-2.566-2.205-5.153-3.339-7.8l1.088-.05 2.746 6.925a1.474 1.474 0 0 0 .11-.208l2.163-6.605c.092-.284.1-.288.4-.3.151-.009.3-.013.468-.021l.064-.317.85-.156" class="prefix__cls-1" data-name="Path 17010" transform="translate(-178.943 1020.79)"/>
        <path id="prefix__Path_17011" d="M265.536 423.829c-.114.1-.191.172-.271.239-.147.122-.3.238-.457.37l-.561-.364c-.146.1-.124.277-.164.414a2.992 2.992 0 0 1-1.489 1.845 1.639 1.639 0 0 1-1 .227 1.606 1.606 0 0 1-1.333-2.139 2.741 2.741 0 0 1 .589-.933q.6-.663 1.2-1.333c.092-.105.164-.23.272-.384-.159-.17-.3-.342-.464-.493a.779.779 0 0 0-.77-.173 2.31 2.31 0 0 0-1.371 1.082.987.987 0 0 0-.066.734c.028.126.074.25.128.427-.241.144-.488.3-.755.456a1.725 1.725 0 0 1-.179-1.574 3.651 3.651 0 0 1 2.3-2.055 1.257 1.257 0 0 1 1.317.351 7 7 0 0 1 .57.642c.32.386.623.786.949 1.167a5.156 5.156 0 0 0 1.553 1.494m-2.747-1.457c-.243.317-.447.6-.666.86s-.472.539-.7.808a1.7 1.7 0 0 0-.166.233.862.862 0 0 0 .028 1.035.9.9 0 0 0 1.03.289 2 2 0 0 0 1.24-1.7 2.315 2.315 0 0 0-.761-1.529" class="prefix__cls-1" data-name="Path 17011" transform="translate(-178.943 1020.79)"/>
        <path id="prefix__Path_17012" d="M230.81 427.2l-.8-.358a1.8 1.8 0 0 1 1.646-1.125 3.974 3.974 0 0 1 2.319.613 1.361 1.361 0 0 1 .658 1.632c-.195.786-.435 1.564-.645 2.348-.1.38-.2.762-.262 1.15a4.785 4.785 0 0 0-.007.743c-.208-.057-.378-.1-.547-.149-.395-.113-.409-.134-.386-.547 0-.069.011-.138.018-.223-.165-.064-.289.041-.413.086a2.972 2.972 0 0 1-2.492-.2 1.545 1.545 0 0 1-.714-2.078 1.561 1.561 0 0 1 1.448-.945 8.808 8.808 0 0 1 1.21.089c.463.044.924.106 1.387.145.307.025.332 0 .416-.312a.977.977 0 0 0-.569-1.3 4.121 4.121 0 0 0-.988-.294 1.039 1.039 0 0 0-1.018.4c-.084.1-.164.2-.265.323m2.523 1.94a1.259 1.259 0 0 0-.166-.04c-.534-.043-1.069-.088-1.605-.126a5.184 5.184 0 0 0-.715-.022.821.821 0 0 0-.777.631.832.832 0 0 0 .331.948 2.032 2.032 0 0 0 .716.3 1.659 1.659 0 0 0 1.774-.564 3 3 0 0 0 .442-1.131" class="prefix__cls-1" data-name="Path 17012" transform="translate(-178.943 1020.79)"/>
        <path id="prefix__Path_17013" d="M219.935 425.995l-.713-.625c.088-.216.17-.42.271-.665l-.444-.044a2.9 2.9 0 0 1-2.218-1.344 1.569 1.569 0 0 1 .934-2.395 1.748 1.748 0 0 1 1.253.15c.287.144.555.324.831.49.419.253.83.517 1.256.757.279.157.31.138.509-.1a.986.986 0 0 0 .016-1.448 4.055 4.055 0 0 0-.691-.616 1.09 1.09 0 0 0-1.247-.068c-.083.045-.166.087-.275.143-.191-.221-.377-.432-.581-.666a1.753 1.753 0 0 1 1.614-.43 3.725 3.725 0 0 1 2.261 1.754 1.33 1.33 0 0 1-.145 1.633c-.472.585-.972 1.148-1.461 1.72-.038.045-.079.088-.117.135a4.77 4.77 0 0 0-1.053 1.623m.968-2.957c-.089-.06-.125-.087-.164-.108-.477-.269-.954-.538-1.432-.8a4.592 4.592 0 0 0-.569-.3.864.864 0 0 0-1.155.476.927.927 0 0 0 .158.943 2.033 2.033 0 0 0 .966.706 1.518 1.518 0 0 0 1.654-.341c.178-.174.341-.362.542-.577" class="prefix__cls-1" data-name="Path 17013" transform="translate(-178.943 1020.79)"/>
        <path id="prefix__Path_17014" d="M271.678 408.239c-.128.262-.25.517-.382.786a1.82 1.82 0 0 1-1.071-1.755 4.087 4.087 0 0 1 .614-2.107 1.418 1.418 0 0 1 1.8-.7c.687.2 1.364.434 2.049.643a5.354 5.354 0 0 0 2.089.407c-.087.273-.162.509-.235.747a.22.22 0 0 1-.247.162c-.153-.006-.306-.015-.511-.026.044.165.077.309.122.45a2.952 2.952 0 0 1-.241 2.355 1.556 1.556 0 0 1-1.753.872 1.578 1.578 0 0 1-1.283-1.557 8 8 0 0 1 .107-1.173c.062-.5.147-.993.206-1.489.036-.3.008-.323-.266-.413a1 1 0 0 0-1.367.558 4.3 4.3 0 0 0-.316 1.055.946.946 0 0 0 .327.87l.356.318m2-2.419c-.047.46-.088.9-.139 1.335-.037.319-.1.636-.125.956a.882.882 0 0 0 .671.969.9.9 0 0 0 1.024-.47 2.044 2.044 0 0 0 .219-1.553 1.77 1.77 0 0 0-1.65-1.237" class="prefix__cls-1" data-name="Path 17014" transform="translate(-178.943 1020.79)"/>
        <path id="prefix__Path_17015" d="M272.677 415.233c-.148.272-.281.511-.438.8-2.327-1.278-4.622-2.56-6.945-3.847.159-.283.3-.529.455-.811l2.472 1.365c-.027-.182-.038-.286-.058-.389a2.364 2.364 0 0 1 1.009-2.364 1.439 1.439 0 0 1 1.235-.18 4.108 4.108 0 0 1 .792.325c1.039.564 2.071 1.143 3.1 1.715.051.029.1.065.18.119l-.432.79c-.134-.067-.239-.116-.342-.172-.929-.514-1.857-1.033-2.79-1.542a2.955 2.955 0 0 0-.589-.257 1.034 1.034 0 0 0-1.154.364 1.471 1.471 0 0 0 .225 2.183c.546.381 1.144.689 1.724 1.021.444.255.9.5 1.346.748.061.033.117.077.206.137" class="prefix__cls-1" data-name="Path 17015" transform="translate(-178.943 1020.79)"/>
        <path id="prefix__Path_17016" d="M261.791 386.75c-.157.078-.272.14-.391.191-.261.115-.449-.005-.459-.291a.63.63 0 0 1 .019-.213c.111-.366.223-.732.349-1.091a.667.667 0 0 1 .183-.258c.25-.227.411-.2.591.086.037.058.082.112.147.2l1.21-.667a9.2 9.2 0 0 0-.745-1.268l-4.13 2.577a1.787 1.787 0 0 1-.033-.272c.006-.189.04-.381.031-.57a.485.485 0 0 1 .276-.489c.988-.6 1.966-1.221 2.947-1.836.11-.068.218-.142.36-.236-.105-.2-.2-.377-.324-.6.244-.153.481-.3.744-.468a44.91 44.91 0 0 1 2.583 4.361l-.756.421-.466-.784-1.244.69.645 1.191-.869.491c-.227-.394-.437-.764-.668-1.169" class="prefix__cls-1" data-name="Path 17016" transform="translate(-178.943 1020.79)"/>
        <path id="prefix__Path_17019" d="M219.436 384.855l-.385.565c-.247-.152-.477-.292-.736-.449a27.023 27.023 0 0 1 2.7-4.089l.7.5-.446.664 3.934 2.87a4.658 4.658 0 0 1-1.011.36c-.1.023-.243-.072-.343-.145-.931-.668-1.856-1.344-2.784-2.017-.114-.082-.232-.162-.371-.259a6.139 6.139 0 0 0-.754 1.144l4.158 2.5a3.971 3.971 0 0 1-.974.474c-.081.032-.222-.056-.32-.115-.973-.58-1.945-1.167-2.916-1.749-.141-.086-.286-.164-.448-.258" class="prefix__cls-1" data-name="Path 17019" transform="translate(-178.943 1020.79)"/>
        <path id="prefix__Path_17020" d="M253.44 424.913l.874-.468 3.586 3.276a.6.6 0 0 0 .02-.143q-.273-1.788-.548-3.574c-.045-.295-.074-.593-.125-.886a.258.258 0 0 1 .154-.319c.2-.1.4-.2.634-.323.08.576.155 1.1.224 1.634.21 1.586.425 3.171.623 4.76a9.669 9.669 0 0 1 .09 1.391 1.412 1.412 0 0 1-1.077 1.4c-.262.072-.288.065-.446-.157-.1-.146-.2-.294-.316-.468l.369-.157a.964.964 0 0 0 .662-1.066v-.036a1.485 1.485 0 0 0-.581-1.227c-1.317-1.1-2.6-2.257-3.887-3.394-.078-.068-.152-.142-.254-.241" class="prefix__cls-1" data-name="Path 17020" transform="translate(-178.943 1020.79)"/>
        <path id="prefix__Path_17021" d="M225.842 423.007c.326.173.6.315.882.468l-.711 4.812 3.611-3.269.779.41a1.271 1.271 0 0 1-.158.207c-1.7 1.5-3.4 3.008-5.107 4.5a3.86 3.86 0 0 1-.9.583 1.367 1.367 0 0 1-1.53-.266.289.289 0 0 1-.106-.375c.077-.184.15-.371.237-.586.141.1.255.177.374.248a.972.972 0 0 0 1.252-.09 1.576 1.576 0 0 0 .682-1.178c.162-1.6.391-3.2.594-4.8.026-.2.057-.4.1-.667" class="prefix__cls-1" data-name="Path 17021" transform="translate(-178.943 1020.79)"/>
        <path id="prefix__Path_17022" d="M255.7 375.719l.543-.463c.065.051.19.142.31.236.462.361.92.722 1.383 1.081.109.085.211.165.116.329l.21-.119 2.193 2.043-.591.654a29.409 29.409 0 0 0-2.946-2.526l-3.005 3.843c-.126-.384-.241-.7-.322-1.012a.413.413 0 0 1 .1-.283c.177-.249.37-.49.584-.768l-.249-.059a1.44 1.44 0 0 1-.8-2.206 1.107 1.107 0 0 1 1.231-.442c.642.15.711.246.661.892a2.327 2.327 0 0 1-.042.23 2.726 2.726 0 0 0-.38-.143 4.631 4.631 0 0 0-.77-.127.67.67 0 0 0-.387.148.3.3 0 0 0 0 .512 1.151 1.151 0 0 0 .732.247h.753l1.132-1.452c-.145-.12-.265-.215-.382-.312-.1-.079-.186-.16-.079-.3z" class="prefix__cls-1" data-name="Path 17022" transform="translate(-178.943 1020.79)"/>
        <path id="prefix__Path_17024" d="M256.184 382.46c-.245-.029-.377-.127-.388-.363a7 7 0 0 1 .127-2.032 1.687 1.687 0 0 1 .791-1.063.939.939 0 0 1 1.513.779l.017.243c.774-.025.972.17.918.926l.339-.12c.1.111.2.213.281.325.25.335.867.135 1.007-.232a.385.385 0 0 0-.093-.4c-.174-.211-.342-.427-.533-.666l.675-.559c.55.611 1.028 1.259 1.577 1.916l-.683.56-.441-.485c-.068.082-.129.149-.183.22a1.708 1.708 0 0 1-1.006.638 1.219 1.219 0 0 1-.816-.146.423.423 0 0 0 .013.589 1.609 1.609 0 0 0 .784.542c.145.05.3.076.507.128a8.133 8.133 0 0 1-.838.674c-.048.035-.164.008-.233-.024a1.438 1.438 0 0 1-.936-1.9 9.06 9.06 0 0 1 .37-.854c-.254-.417-.539-.457-.878-.109-.2.205-.392.416-.622.66l-.326-.731c.162-.175.32-.351.481-.524.123-.133.264-.256.147-.465a.577.577 0 0 0-.61-.277.885.885 0 0 0-.575.5 4.043 4.043 0 0 0-.311 1.354c-.03.294-.05.588-.075.89" class="prefix__cls-1" data-name="Path 17024" transform="translate(-178.943 1020.79)"/>
        <path id="prefix__Path_17025" d="M262.15 419.225l.651-.709 4.423 1.913a4.886 4.886 0 0 0-.415-.866c-.137-.291-.289-.576-.436-.862s-.292-.575-.438-.862l-.44-.86c-.146-.287-.288-.573-.441-.875l.64-.689c.117.223.212.4.3.579l2.262 4.593c.158.322.16.324-.083.581-.424.446-.288.414-.832.191q-2.437-.988-4.87-1.987c-.095-.039-.189-.085-.322-.147" class="prefix__cls-1" data-name="Path 17025" transform="translate(-178.943 1020.79)"/>
        <path id="prefix__Path_17031" d="M277.144 403.119c-.051.3-.1.578-.149.9l-5.648-1c.053-.283.1-.523.147-.795l.777.09c-.217-.264-.415-.467-.568-.7a.965.965 0 0 1-.09-.828 1.7 1.7 0 0 1 .448-.77l.761.441-.153.279a1.006 1.006 0 0 0 .481 1.494 4.936 4.936 0 0 0 1.085.346c.853.171 1.714.306 2.57.456.093.018.185.046.339.083" class="prefix__cls-1" data-name="Path 17031" transform="translate(-178.943 1020.79)"/>
        <path id="prefix__Path_17032" d="M222.98 388.17v.559c-.192.067-.4.151-.613.212a.625.625 0 0 0-.476.426 1.276 1.276 0 0 1-.275.413.451.451 0 0 1-.523.129.549.549 0 0 1-.383-.433.837.837 0 0 1 .5-.907.43.43 0 0 0 .244-.5c-.029-.257-.208-.37-.429-.24a7.513 7.513 0 0 0-.689.51c-.2.152-.383.326-.593.46a1.333 1.333 0 0 1-.494.192.548.548 0 0 1-.66-.633.38.38 0 0 1 .018-.106c.3-.791.6-1.582.9-2.387a3.306 3.306 0 0 1 .831.268l-.71 1.907.065.034a2.843 2.843 0 0 1 .239-.251 6 6 0 0 1 .792-.6.769.769 0 0 1 1.131.324 5.287 5.287 0 0 1 .3.771c.1-.016.233-.035.367-.058s.278-.053.463-.088" class="prefix__cls-1" data-name="Path 17032" transform="translate(-178.943 1020.79)"/>
        <path id="prefix__Path_17033" d="M260.49 390.054c.091-.4.163-.717.227-1.029.033-.164.173-.184.291-.231q1.326-.541 2.653-1.075c.321-.13.638-.263.985-.406-.07-.217-.132-.417-.2-.653l.807-.327.928 2.282c-.273.116-.53.223-.819.344l-.326-.735-2.237.9c-.738.3-1.479.6-2.3.929" class="prefix__cls-1" data-name="Path 17033" transform="translate(-178.943 1020.79)"/>
        <path id="prefix__Path_17034" d="M267.657 379.917c.057-.116.1-.21.156-.316-.1-.047-.188-.088-.274-.125a1.313 1.313 0 0 1-.709-.765.861.861 0 0 1 .268-1.029.841.841 0 0 1 1.087-.014 6.631 6.631 0 0 1 .527.481c.139.13.278.261.421.389a.539.539 0 0 0 .116.061c.3-.18.351-.278.3-.5a.774.774 0 0 0-.783-.584c-.043-.093-.1-.2-.141-.306s-.069-.2-.109-.313a1 1 0 0 1 1.024.175 2.461 2.461 0 0 1 .7 1.064.759.759 0 0 1-.283.949c-.3.215-.612.413-.922.615a3.236 3.236 0 0 0-.978.83c-.138-.213-.258-.4-.395-.609m1.124-1.048a7.658 7.658 0 0 0-.686-.607.371.371 0 0 0-.6.3.669.669 0 0 0 .142.421c.283.352.71.31 1.139-.115" class="prefix__cls-1" data-name="Path 17034" transform="translate(-178.943 1020.79)"/>
        <path id="prefix__Path_17038" d="M271.761 384.813c-.3-.632-.581-1.234-.863-1.83a.636.636 0 0 0-.54.666c.012.36.176.514.71.64l.189.675a1.057 1.057 0 0 1-1.01-.295 1.661 1.661 0 0 1-.53-1.141 1.516 1.516 0 0 1 .148-.686 2.061 2.061 0 0 1 2.056-.914 1.446 1.446 0 0 1 .678 2.353 2.013 2.013 0 0 1-.838.532m.078-.938c.451-.172.623-.524.46-.879s-.536-.449-.977-.231l.517 1.11" class="prefix__cls-1" data-name="Path 17038" transform="translate(-178.943 1020.79)"/>
        <path id="prefix__Path_17042" d="M273.786 387.7l-.352-.606a.794.794 0 0 0 .008-1.024c-.066-.113-.16-.223-.317-.169-.134.045-.164.163-.159.291.006.19.022.381.031.571a6.679 6.679 0 0 1 .026.786.834.834 0 0 1-1.153.749 1.085 1.085 0 0 1-.56-.427 2.171 2.171 0 0 1-.4-1.418 1.086 1.086 0 0 1 .51-.86c.123.229.24.443.361.665a.787.787 0 0 0-.137 1.057.68.68 0 0 0 .157.193.266.266 0 0 0 .466-.182 2.38 2.38 0 0 0-.017-.356c-.016-.31-.043-.619-.042-.929a.792.792 0 0 1 .543-.8.84.84 0 0 1 .975.249 2.178 2.178 0 0 1 .514 1.453.868.868 0 0 1-.451.759" class="prefix__cls-1" data-name="Path 17042" transform="translate(-178.943 1020.79)"/>
        <path id="prefix__Path_17043" d="M222.034 427.326l-.781-.508 3.119-4.808.783.506-3.121 4.81" class="prefix__cls-1" data-name="Path 17043" transform="translate(-178.943 1020.79)"/>
        <path id="prefix__Path_17044" d="M271.169 417.537l-.534.764-4.692-3.286.526-.77 4.7 3.292" class="prefix__cls-1" data-name="Path 17044" transform="translate(-178.943 1020.79)"/>
        <path id="prefix__Path_17045" d="M248.626 432.219l-.916.164-1.092-5.616c.31-.058.594-.113.916-.175l1.092 5.627" class="prefix__cls-1" data-name="Path 17045" transform="translate(-178.943 1020.79)"/>
        <path id="prefix__Path_17047" d="M269.682 382.084l-.469.354a4.358 4.358 0 0 1-.385-.475.7.7 0 0 1 .247-1.094c.373-.238.76-.45 1.14-.675.123-.072.244-.147.383-.231l-.113-.363.467-.277.245.27a.444.444 0 0 0 .141-.05.586.586 0 0 1 .833.015c.091.07.193.125.34.22-.321.193-.6.362-.906.543.078.165.149.313.236.5-.158.1-.312.195-.486.3l-.343-.469c-.482.283-.955.556-1.423.838a.236.236 0 0 0-.064.371c.046.067.1.132.157.221" class="prefix__cls-1" data-name="Path 17047" transform="translate(-178.943 1020.79)"/>
        <path id="prefix__Path_17053" d="M259.456 388.466a1.35 1.35 0 0 1 .733.761.7.7 0 0 1 .013.623 3.143 3.143 0 0 1-.345.582c-.281.356-.585.694-.884 1.034-.149.168-.155.163-.455.058.047-.082.086-.163.137-.236.269-.38.546-.755.808-1.14.179-.264.167-.334-.056-.557-.16-.159-.331-.308-.527-.489.1-.108.183-.214.277-.316s.195-.209.3-.32" class="prefix__cls-1" data-name="Path 17053" transform="translate(-178.943 1020.79)"/>
        <path id="prefix__Path_17056" d="M265.016 414.364l-.885-.619.537-.757.876.61-.528.766" class="prefix__cls-1" data-name="Path 17056" transform="translate(-178.943 1020.79)"/>
        <path id="prefix__Path_17057" d="M225.574 420.16l.752.488a5.079 5.079 0 0 1-.566.916l-.773-.5c.2-.311.386-.594.587-.9" class="prefix__cls-1" data-name="Path 17057" transform="translate(-178.943 1020.79)"/>
        <path id="prefix__Path_17058" d="M260.389 367.495c.136-.218.246-.4.381-.612l.668.409-.379.616-.67-.413" class="prefix__cls-1" data-name="Path 17058" transform="translate(-178.943 1020.79)"/>
    </g>
</svg>
